<svg xmlns="http://www.w3.org/2000/svg" xmlns:xlink="http://www.w3.org/1999/xlink" preserveAspectRatio="xMidYMid meet" version="1.0" viewBox="0.0 0.0 315.2 315.2" zoomAndPan="magnify" style="fill: rgb(58, 56, 69);" original_string_length="26849"><g id="__id291_srveoc98t"><path d="M18.4255,10.2151c0,4.5342-3.6757,8.2099-8.2099,8.2099s-8.2099-3.6757-8.2099-8.2099 s3.6757-8.2099,8.2099-8.2099S18.4255,5.6809,18.4255,10.2151z M59.3369,2.0052c-4.5342,0-8.2099,3.6757-8.2099,8.2099 s3.6757,8.2099,8.2099,8.2099s8.2099-3.6757,8.2099-8.2099S63.8711,2.0052,59.3369,2.0052z M108.4582,2.0052 c-4.5342,0-8.2099,3.6757-8.2099,8.2099s3.6757,8.2099,8.2099,8.2099c4.5342,0,8.2099-3.6757,8.2099-8.2099 S112.9924,2.0052,108.4582,2.0052z M157.5795,2.0052c-4.5342,0-8.2099,3.6757-8.2099,8.2099s3.6757,8.2099,8.2099,8.2099 c4.5342,0,8.2099-3.6757,8.2099-8.2099S162.1137,2.0052,157.5795,2.0052z M206.7008,2.0052c-4.5342,0-8.2099,3.6757-8.2099,8.2099 s3.6757,8.2099,8.2099,8.2099c4.5342,0,8.2099-3.6757,8.2099-8.2099S211.235,2.0052,206.7008,2.0052z M255.8221,2.0052 c-4.5342,0-8.2099,3.6757-8.2099,8.2099s3.6757,8.2099,8.2099,8.2099c4.5342,0,8.2099-3.6757,8.2099-8.2099 S260.3563,2.0052,255.8221,2.0052z M304.9434,2.0052c-4.5342,0-8.2099,3.6757-8.2099,8.2099s3.6757,8.2099,8.2099,8.2099 c4.5342,0,8.2099-3.6757,8.2099-8.2099S309.4776,2.0052,304.9434,2.0052z M10.2156,51.127c-4.5342,0-8.2099,3.6757-8.2099,8.2099 s3.6757,8.2099,8.2099,8.2099s8.2099-3.6757,8.2099-8.2099S14.7498,51.127,10.2156,51.127z M10.2156,51.127 c-4.5342,0-8.2099,3.6757-8.2099,8.2099s3.6757,8.2099,8.2099,8.2099s8.2099-3.6757,8.2099-8.2099S14.7498,51.127,10.2156,51.127z M10.2156,100.2487c-4.5342,0-8.2099,3.6757-8.2099,8.2099s3.6757,8.2099,8.2099,8.2099s8.2099-3.6757,8.2099-8.2099 S14.7498,100.2487,10.2156,100.2487z M10.2156,149.3705c-4.5342,0-8.2099,3.6757-8.2099,8.2099s3.6757,8.2099,8.2099,8.2099 s8.2099-3.6757,8.2099-8.2099S14.7498,149.3705,10.2156,149.3705z M10.2156,198.4922c-4.5342,0-8.2099,3.6757-8.2099,8.2099 c0,4.5342,3.6757,8.2099,8.2099,8.2099s8.2099-3.6757,8.2099-8.2099C18.4255,202.1679,14.7498,198.4922,10.2156,198.4922z M10.2156,247.614c-4.5342,0-8.2099,3.6757-8.2099,8.2099s3.6757,8.2099,8.2099,8.2099s8.2099-3.6757,8.2099-8.2099 S14.7498,247.614,10.2156,247.614z M10.2156,296.7357c-4.5342,0-8.2099,3.6757-8.2099,8.2099s3.6757,8.2099,8.2099,8.2099 s8.2099-3.6757,8.2099-8.2099S14.7498,296.7357,10.2156,296.7357z M59.3367,51.127c-4.5342,0-8.2099,3.6757-8.2099,8.2099 s3.6757,8.2099,8.2099,8.2099s8.2099-3.6757,8.2099-8.2099S63.8709,51.127,59.3367,51.127z M59.3367,51.127 c-4.5342,0-8.2099,3.6757-8.2099,8.2099s3.6757,8.2099,8.2099,8.2099s8.2099-3.6757,8.2099-8.2099S63.8709,51.127,59.3367,51.127z M59.3367,100.2487c-4.5342,0-8.2099,3.6757-8.2099,8.2099s3.6757,8.2099,8.2099,8.2099s8.2099-3.6757,8.2099-8.2099 S63.8709,100.2487,59.3367,100.2487z M59.3367,149.3705c-4.5342,0-8.2099,3.6757-8.2099,8.2099s3.6757,8.2099,8.2099,8.2099 s8.2099-3.6757,8.2099-8.2099S63.8709,149.3705,59.3367,149.3705z M59.3367,198.4922c-4.5342,0-8.2099,3.6757-8.2099,8.2099 c0,4.5342,3.6757,8.2099,8.2099,8.2099s8.2099-3.6757,8.2099-8.2099C67.5466,202.1679,63.8709,198.4922,59.3367,198.4922z M59.3367,247.614c-4.5342,0-8.2099,3.6757-8.2099,8.2099s3.6757,8.2099,8.2099,8.2099s8.2099-3.6757,8.2099-8.2099 S63.8709,247.614,59.3367,247.614z M59.3367,296.7357c-4.5342,0-8.2099,3.6757-8.2099,8.2099s3.6757,8.2099,8.2099,8.2099 s8.2099-3.6757,8.2099-8.2099S63.8709,296.7357,59.3367,296.7357z M108.4582,51.127c-4.5342,0-8.2099,3.6757-8.2099,8.2099 s3.6757,8.2099,8.2099,8.2099c4.5342,0,8.2099-3.6757,8.2099-8.2099S112.9924,51.127,108.4582,51.127z M108.4582,51.127 c-4.5342,0-8.2099,3.6757-8.2099,8.2099s3.6757,8.2099,8.2099,8.2099c4.5342,0,8.2099-3.6757,8.2099-8.2099 S112.9924,51.127,108.4582,51.127z M108.4582,100.2487c-4.5342,0-8.2099,3.6757-8.2099,8.2099s3.6757,8.2099,8.2099,8.2099 c4.5342,0,8.2099-3.6757,8.2099-8.2099S112.9924,100.2487,108.4582,100.2487z M108.4582,149.3705 c-4.5342,0-8.2099,3.6757-8.2099,8.2099s3.6757,8.2099,8.2099,8.2099c4.5342,0,8.2099-3.6757,8.2099-8.2099 S112.9924,149.3705,108.4582,149.3705z M108.4582,198.4922c-4.5342,0-8.2099,3.6757-8.2099,8.2099 c0,4.5342,3.6757,8.2099,8.2099,8.2099c4.5342,0,8.2099-3.6757,8.2099-8.2099 C116.6681,202.1679,112.9924,198.4922,108.4582,198.4922z M108.4582,247.614c-4.5342,0-8.2099,3.6757-8.2099,8.2099 s3.6757,8.2099,8.2099,8.2099c4.5342,0,8.2099-3.6757,8.2099-8.2099S112.9924,247.614,108.4582,247.614z M108.4582,296.7357 c-4.5342,0-8.2099,3.6757-8.2099,8.2099s3.6757,8.2099,8.2099,8.2099c4.5342,0,8.2099-3.6757,8.2099-8.2099 S112.9924,296.7357,108.4582,296.7357z M157.5793,51.127c-4.5342,0-8.2099,3.6757-8.2099,8.2099s3.6757,8.2099,8.2099,8.2099 s8.2099-3.6757,8.2099-8.2099S162.1135,51.127,157.5793,51.127z M157.5793,51.127c-4.5342,0-8.2099,3.6757-8.2099,8.2099 s3.6757,8.2099,8.2099,8.2099s8.2099-3.6757,8.2099-8.2099S162.1135,51.127,157.5793,51.127z M157.5793,100.2487 c-4.5342,0-8.2099,3.6757-8.2099,8.2099s3.6757,8.2099,8.2099,8.2099s8.2099-3.6757,8.2099-8.2099 S162.1135,100.2487,157.5793,100.2487z M157.5793,149.3705c-4.5342,0-8.2099,3.6757-8.2099,8.2099s3.6757,8.2099,8.2099,8.2099 s8.2099-3.6757,8.2099-8.2099S162.1135,149.3705,157.5793,149.3705z M157.5793,198.4922c-4.5342,0-8.2099,3.6757-8.2099,8.2099 c0,4.5342,3.6757,8.2099,8.2099,8.2099s8.2099-3.6757,8.2099-8.2099C165.7892,202.1679,162.1135,198.4922,157.5793,198.4922z M157.5793,247.614c-4.5342,0-8.2099,3.6757-8.2099,8.2099s3.6757,8.2099,8.2099,8.2099s8.2099-3.6757,8.2099-8.2099 S162.1135,247.614,157.5793,247.614z M157.5793,296.7357c-4.5342,0-8.2099,3.6757-8.2099,8.2099s3.6757,8.2099,8.2099,8.2099 s8.2099-3.6757,8.2099-8.2099S162.1135,296.7357,157.5793,296.7357z M206.7001,51.127c-4.5342,0-8.2099,3.6757-8.2099,8.2099 s3.6757,8.2099,8.2099,8.2099c4.5342,0,8.2099-3.6757,8.2099-8.2099S211.2343,51.127,206.7001,51.127z M206.7001,51.127 c-4.5342,0-8.2099,3.6757-8.2099,8.2099s3.6757,8.2099,8.2099,8.2099c4.5342,0,8.2099-3.6757,8.2099-8.2099 S211.2343,51.127,206.7001,51.127z M206.7001,100.2487c-4.5342,0-8.2099,3.6757-8.2099,8.2099s3.6757,8.2099,8.2099,8.2099 c4.5342,0,8.2099-3.6757,8.2099-8.2099S211.2343,100.2487,206.7001,100.2487z M206.7001,149.3705 c-4.5342,0-8.2099,3.6757-8.2099,8.2099s3.6757,8.2099,8.2099,8.2099c4.5342,0,8.2099-3.6757,8.2099-8.2099 S211.2343,149.3705,206.7001,149.3705z M206.7001,198.4922c-4.5342,0-8.2099,3.6757-8.2099,8.2099 c0,4.5342,3.6757,8.2099,8.2099,8.2099c4.5342,0,8.2099-3.6757,8.2099-8.2099C214.91,202.1679,211.2343,198.4922,206.7001,198.4922z M206.7001,247.614c-4.5342,0-8.2099,3.6757-8.2099,8.2099s3.6757,8.2099,8.2099,8.2099c4.5342,0,8.2099-3.6757,8.2099-8.2099 S211.2343,247.614,206.7001,247.614z M206.7001,296.7357c-4.5342,0-8.2099,3.6757-8.2099,8.2099s3.6757,8.2099,8.2099,8.2099 c4.5342,0,8.2099-3.6757,8.2099-8.2099S211.2343,296.7357,206.7001,296.7357z M304.9436,51.127 c-4.5342,0-8.2099,3.6757-8.2099,8.2099s3.6757,8.2099,8.2099,8.2099c4.5342,0,8.2099-3.6757,8.2099-8.2099 S309.4779,51.127,304.9436,51.127z M304.9436,51.127c-4.5342,0-8.2099,3.6757-8.2099,8.2099s3.6757,8.2099,8.2099,8.2099 c4.5342,0,8.2099-3.6757,8.2099-8.2099S309.4779,51.127,304.9436,51.127z M304.9436,100.2487c-4.5342,0-8.2099,3.6757-8.2099,8.2099 s3.6757,8.2099,8.2099,8.2099c4.5342,0,8.2099-3.6757,8.2099-8.2099S309.4779,100.2487,304.9436,100.2487z M304.9436,149.3705 c-4.5342,0-8.2099,3.6757-8.2099,8.2099s3.6757,8.2099,8.2099,8.2099c4.5342,0,8.2099-3.6757,8.2099-8.2099 S309.4779,149.3705,304.9436,149.3705z M304.9436,198.4922c-4.5342,0-8.2099,3.6757-8.2099,8.2099 c0,4.5342,3.6757,8.2099,8.2099,8.2099c4.5342,0,8.2099-3.6757,8.2099-8.2099 C313.1536,202.1679,309.4779,198.4922,304.9436,198.4922z M304.9436,247.614c-4.5342,0-8.2099,3.6757-8.2099,8.2099 s3.6757,8.2099,8.2099,8.2099c4.5342,0,8.2099-3.6757,8.2099-8.2099S309.4779,247.614,304.9436,247.614z M304.9436,296.7357 c-4.5342,0-8.2099,3.6757-8.2099,8.2099s3.6757,8.2099,8.2099,8.2099c4.5342,0,8.2099-3.6757,8.2099-8.2099 S309.4779,296.7357,304.9436,296.7357z M255.8218,51.127c-4.5342,0-8.2099,3.6757-8.2099,8.2099s3.6757,8.2099,8.2099,8.2099 c4.5342,0,8.2099-3.6757,8.2099-8.2099S260.356,51.127,255.8218,51.127z M255.8218,51.127c-4.5342,0-8.2099,3.6757-8.2099,8.2099 s3.6757,8.2099,8.2099,8.2099c4.5342,0,8.2099-3.6757,8.2099-8.2099S260.356,51.127,255.8218,51.127z M255.8218,100.2487 c-4.5342,0-8.2099,3.6757-8.2099,8.2099s3.6757,8.2099,8.2099,8.2099c4.5342,0,8.2099-3.6757,8.2099-8.2099 S260.356,100.2487,255.8218,100.2487z M255.8218,149.3705c-4.5342,0-8.2099,3.6757-8.2099,8.2099s3.6757,8.2099,8.2099,8.2099 c4.5342,0,8.2099-3.6757,8.2099-8.2099S260.356,149.3705,255.8218,149.3705z M255.8218,198.4922 c-4.5342,0-8.2099,3.6757-8.2099,8.2099c0,4.5342,3.6757,8.2099,8.2099,8.2099c4.5342,0,8.2099-3.6757,8.2099-8.2099 C264.0317,202.1679,260.356,198.4922,255.8218,198.4922z M255.8218,247.614c-4.5342,0-8.2099,3.6757-8.2099,8.2099 s3.6757,8.2099,8.2099,8.2099c4.5342,0,8.2099-3.6757,8.2099-8.2099S260.356,247.614,255.8218,247.614z M255.8218,296.7357 c-4.5342,0-8.2099,3.6757-8.2099,8.2099s3.6757,8.2099,8.2099,8.2099c4.5342,0,8.2099-3.6757,8.2099-8.2099 S260.356,296.7357,255.8218,296.7357z" style="fill: rgb(255, 81, 54);"/></g><g id="__id292_srveoc98t"><path d="M304.9428,315.1578c-5.6331,0-10.2148-4.5818-10.2148-10.2148c0-5.633,4.5818-10.2161,10.2148-10.2161 c5.6331,0,10.2161,4.583,10.2161,10.2161C315.1589,310.576,310.5759,315.1578,304.9428,315.1578z M304.9428,298.6751 c-3.4558,0-6.2667,2.812-6.2667,6.268s2.8108,6.2667,6.2667,6.2667c3.4558,0,6.2679-2.8108,6.268-6.2667 C311.2108,301.487,308.3988,298.675,304.9428,298.6751z M255.8226,315.1577c-5.633,0-10.2161-4.5818-10.2161-10.2148 s4.5831-10.2161,10.2161-10.2161c5.633,0,10.2148,4.5831,10.2148,10.2161C266.0374,310.576,261.4557,315.1577,255.8226,315.1577z M255.8226,298.675c-3.4558,0-6.2679,2.812-6.268,6.268s2.812,6.2667,6.268,6.2667c3.4559-0.0001,6.2666-2.8107,6.2667-6.2667 C262.0893,301.487,259.2784,298.675,255.8226,298.675z M206.7002,315.1578c-5.633,0-10.2148-4.5818-10.2148-10.2148 c0-5.633,4.5817-10.2161,10.2148-10.2161s10.2161,4.583,10.2161,10.2161S212.3332,315.1577,206.7002,315.1578z M206.7002,298.675 c-3.4558,0-6.2667,2.812-6.2667,6.268c0.0001,3.4559,2.8108,6.2667,6.2667,6.2667c3.4559-0.0001,6.2679-2.8107,6.268-6.2667 C212.9683,301.487,210.156,298.675,206.7002,298.675z M157.5788,315.1577c-5.633,0-10.2148-4.5818-10.2148-10.2148 s4.5818-10.2161,10.2148-10.2161s10.2161,4.583,10.2161,10.2161S163.2119,315.1577,157.5788,315.1577z M157.5788,298.675 c-3.4558,0-6.2667,2.812-6.2667,6.268c-0.0001,3.4559,2.8107,6.2667,6.2667,6.2667c3.4559,0.0001,6.2679-2.8107,6.268-6.2667 C163.8466,301.487,161.0347,298.675,157.5788,298.675z M108.458,315.1577c-5.633,0-10.2161-4.5818-10.2161-10.2148 c0-5.6331,4.5831-10.2161,10.2161-10.2161s10.2148,4.5831,10.2148,10.2161C118.6727,310.576,114.091,315.1577,108.458,315.1577z M108.458,298.675c-3.4558,0-6.2679,2.8121-6.268,6.268s2.812,6.2666,6.268,6.2667s6.2667-2.8106,6.2667-6.2667 C114.7246,301.487,111.9138,298.675,108.458,298.675z M59.3367,315.1578c-5.633,0-10.2154-4.5819-10.2154-10.2149 s4.5824-10.216,10.2155-10.2161s10.2155,4.583,10.2155,10.2161C69.5522,310.576,64.9698,315.1578,59.3367,315.1578z M59.3368,298.6751c-3.4559-0.0001-6.2673,2.812-6.2673,6.2679c0.0001,3.456,2.8114,6.2667,6.2673,6.2666 s6.2673-2.8108,6.2673-6.2666C65.604,301.487,62.7927,298.675,59.3368,298.6751z M10.2155,315.1577 c-5.633,0-10.2154-4.5818-10.2154-10.2149s4.5824-10.216,10.2155-10.2162c5.633,0,10.2155,4.583,10.2155,10.2161 C20.4311,310.5758,15.8486,315.1577,10.2155,315.1577z M10.2156,298.675c-3.4558,0-6.2673,2.812-6.2672,6.268 c0.0001,3.4559,2.8114,6.2667,6.2673,6.2666c3.4558,0,6.2673-2.8107,6.2672-6.2667C16.4829,301.487,13.6714,298.675,10.2156,298.675 z M304.9428,266.0359c-5.633,0-10.2148-4.5818-10.2148-10.2148c0-5.633,4.5818-10.2148,10.2148-10.2148 c5.633,0,10.2161,4.5818,10.2161,10.2148C315.1589,261.4542,310.5759,266.036,304.9428,266.0359z M304.9429,249.5545 c-3.4558,0-6.2666,2.8107-6.2667,6.2667c-0.0001,3.4559,2.8107,6.2666,6.2667,6.2667s6.2679-2.8107,6.268-6.2667 C311.2108,252.3652,308.3988,249.5544,304.9429,249.5545z M255.8226,266.0359c-5.633,0-10.2161-4.5818-10.2161-10.2148 s4.5831-10.2148,10.2161-10.2148c5.6331,0,10.2148,4.5818,10.2148,10.2148C266.0374,261.4541,261.4557,266.0359,255.8226,266.0359z M255.8226,249.5544c-3.4559,0.0001-6.2679,2.8107-6.268,6.2667c-0.0001,3.4559,2.812,6.2667,6.268,6.2667 c3.4559-0.0001,6.2666-2.8107,6.2667-6.2667C262.0891,252.3652,259.2784,249.5544,255.8226,249.5544z M206.7002,266.0359 c-5.633,0-10.2148-4.5818-10.2148-10.2148c0-5.633,4.5818-10.2148,10.2148-10.2148s10.2161,4.5818,10.2161,10.2148 C216.9163,261.4541,212.3333,266.0359,206.7002,266.0359z M206.7002,249.5544c-3.4559,0.0001-6.2666,2.8107-6.2667,6.2667 c0,3.4558,2.8108,6.2666,6.2667,6.2667c3.4559-0.0001,6.2679-2.8108,6.268-6.2667 C212.9681,252.3652,210.156,249.5544,206.7002,249.5544z M157.5788,266.0359c-5.633,0-10.2148-4.5818-10.2148-10.2148 s4.5818-10.2148,10.2148-10.2148s10.2161,4.5818,10.2161,10.2148C167.7948,261.4541,163.2119,266.0359,157.5788,266.0359z M157.5788,249.5544c-3.4558,0-6.2666,2.8107-6.2667,6.2667c-0.0001,3.4559,2.8107,6.2667,6.2667,6.2667 c3.4559,0.0001,6.2679-2.8108,6.268-6.2667C163.8466,252.3652,161.0347,249.5544,157.5788,249.5544z M108.458,266.0359 c-5.633,0-10.2161-4.5818-10.2161-10.2148s4.5831-10.2148,10.2161-10.2148s10.2148,4.5818,10.2148,10.2148 C118.6728,261.4541,114.091,266.0359,108.458,266.0359z M108.458,249.5544c-3.4558,0-6.2679,2.8107-6.268,6.2667 c-0.0001,3.4559,2.812,6.2667,6.268,6.2667c3.4559,0.0001,6.2667-2.8107,6.2667-6.2667 C114.7246,252.3652,111.9138,249.5544,108.458,249.5544z M59.3368,266.0359c-5.633,0-10.2154-4.5818-10.2155-10.2148 c0-5.633,4.5824-10.2149,10.2155-10.2148s10.2154,4.5818,10.2155,10.2148C69.5522,261.4541,64.9698,266.0359,59.3368,266.0359z M59.3367,249.5544c-3.4558,0-6.2673,2.8107-6.2673,6.2666c0.0001,3.4559,2.8114,6.2667,6.2672,6.2667s6.2673-2.8108,6.2673-6.2666 C65.604,252.3652,62.7927,249.5544,59.3367,249.5544z M10.2155,266.0359C4.5825,266.0359,0,261.4541,0,255.8211 c0-5.6331,4.5824-10.2149,10.2155-10.2148s10.2154,4.5819,10.2154,10.2149C20.431,261.4542,15.8486,266.0359,10.2155,266.0359z M10.2155,249.5544c-3.456,0-6.2673,2.8107-6.2673,6.2666c0,3.4559,2.8114,6.2667,6.2672,6.2667s6.2673-2.8108,6.2672-6.2667 C16.4829,252.3652,13.6714,249.5544,10.2155,249.5544z M304.9427,216.9153c-5.6331,0-10.2148-4.5831-10.2148-10.2161 s4.5818-10.2148,10.2148-10.2148c5.6331,0,10.2161,4.5818,10.2161,10.2148C315.1589,212.3323,310.576,216.9153,304.9427,216.9153z M304.9428,200.4325c-3.4558,0-6.2666,2.8107-6.2667,6.2667c0,3.4558,2.8108,6.2679,6.2667,6.268s6.268-2.812,6.268-6.268 C311.2108,203.2433,308.3988,200.4325,304.9428,200.4325z M255.8226,216.9153c-5.633,0-10.2161-4.5831-10.2161-10.2161 s4.5831-10.2148,10.2161-10.2148c5.633,0,10.2148,4.5818,10.2148,10.2148S261.4557,216.9153,255.8226,216.9153z M255.8226,200.4325 c-3.4559,0.0001-6.2679,2.8107-6.268,6.2667c0,3.4558,2.8121,6.2679,6.268,6.268c3.4559,0.0001,6.2667-2.812,6.2667-6.268 C262.0893,203.2433,259.2784,200.4325,255.8226,200.4325z M206.7002,216.9153c-5.633,0-10.2148-4.5831-10.2148-10.2161 s4.5818-10.2148,10.2148-10.2148s10.2161,4.5818,10.2161,10.2148S212.3332,216.9153,206.7002,216.9153z M206.7002,200.4325 c-3.4559,0.0001-6.2666,2.8107-6.2667,6.2667c0,3.4558,2.8108,6.2679,6.2667,6.268c3.4559,0.0001,6.268-2.812,6.268-6.268 C212.9681,203.2433,210.156,200.4325,206.7002,200.4325z M157.5788,216.9153c-5.633,0-10.2148-4.5831-10.2148-10.2161 s4.5818-10.2148,10.2148-10.2148s10.2161,4.5818,10.2161,10.2148S163.2119,216.9153,157.5788,216.9153z M157.5788,200.4325 c-3.4558,0-6.2666,2.8107-6.2667,6.2667c-0.0001,3.4559,2.8107,6.2679,6.2667,6.268c3.4559-0.0001,6.2679-2.8121,6.268-6.268 C163.8466,203.2433,161.0347,200.4325,157.5788,200.4325z M108.458,216.9153c-5.633,0-10.2161-4.5831-10.2161-10.2161 c0-5.6331,4.5831-10.2148,10.2161-10.2148s10.2148,4.5818,10.2148,10.2148S114.091,216.9153,108.458,216.9153z M108.458,200.4325 c-3.4558,0-6.2679,2.8107-6.268,6.2667c-0.0001,3.4559,2.812,6.268,6.268,6.268c3.4558,0,6.2667-2.812,6.2667-6.268 C114.7246,203.2433,111.9138,200.4325,108.458,200.4325z M59.3367,216.9153c-5.633,0-10.2155-4.5831-10.2154-10.2162 c0-5.633,4.5824-10.2149,10.2155-10.2148s10.2155,4.5818,10.2155,10.2148C69.5522,212.3322,64.9698,216.9154,59.3367,216.9153z M59.3367,200.4325c-3.4559,0.0001-6.2673,2.8107-6.2673,6.2666c0.0001,3.4559,2.8114,6.268,6.2672,6.268 c3.4559,0.0001,6.2673-2.812,6.2673-6.2679C65.604,203.2433,62.7927,200.4325,59.3367,200.4325z M10.2155,216.9153 c-5.6331,0-10.2155-4.5831-10.2154-10.2162c0-5.6331,4.5824-10.2149,10.2155-10.2149s10.2154,4.5819,10.2154,10.2149 S15.8486,216.9153,10.2155,216.9153z M10.2155,200.4325c-3.4558,0-6.2673,2.8107-6.2672,6.2667c0,3.4558,2.8114,6.268,6.2673,6.2679 c3.4558,0,6.2673-2.8121,6.2673-6.2679C16.4829,203.2433,13.6714,200.4325,10.2155,200.4325z M304.9428,167.7947 c-5.6331,0-10.2148-4.5831-10.2148-10.2161s4.5818-10.2148,10.2148-10.2148c5.633,0,10.2161,4.5818,10.2161,10.2148 S310.5759,167.7946,304.9428,167.7947z M304.9427,151.312c-3.4559-0.0001-6.2667,2.8106-6.2667,6.2667 c0,3.4558,2.8108,6.2679,6.2667,6.268c3.4558,0,6.2679-2.8121,6.268-6.268C311.2108,154.1227,308.3988,151.312,304.9427,151.312z M255.8226,167.7947c-5.633,0-10.2161-4.5831-10.2161-10.2161c0-5.6331,4.5831-10.2148,10.2161-10.2148 c5.633,0,10.2148,4.5818,10.2148,10.2148C266.0374,163.2117,261.4557,167.7947,255.8226,167.7947z M255.8226,151.312 c-3.4558,0-6.2679,2.8107-6.268,6.2667c0,3.4558,2.8121,6.2679,6.268,6.268c3.4558,0,6.2667-2.812,6.2667-6.268 C262.0893,154.1227,259.2784,151.312,255.8226,151.312z M206.7002,167.7947c-5.633,0-10.2148-4.5831-10.2148-10.2161 s4.5818-10.2148,10.2148-10.2148s10.2161,4.5818,10.2161,10.2148C216.9163,163.2117,212.3332,167.7947,206.7002,167.7947z M206.7002,151.312c-3.4558,0-6.2666,2.8108-6.2667,6.2667c-0.0001,3.4559,2.8108,6.2679,6.2667,6.268 c3.4558,0,6.2679-2.8121,6.268-6.268C212.9681,154.1227,210.156,151.312,206.7002,151.312z M157.5788,167.7947 c-5.633,0-10.2148-4.5831-10.2148-10.2161s4.5818-10.2148,10.2148-10.2148s10.2161,4.5818,10.2161,10.2148 C167.7948,163.2117,163.2119,167.7947,157.5788,167.7947z M157.5788,151.312c-3.4559,0.0001-6.2666,2.8107-6.2667,6.2667 c0.0001,3.4559,2.8108,6.2679,6.2667,6.268c3.4559,0.0001,6.2679-2.8121,6.268-6.268 C163.8468,154.1227,161.0347,151.312,157.5788,151.312z M108.458,167.7947c-5.633,0-10.2161-4.5831-10.2161-10.2161 s4.5831-10.2148,10.2161-10.2148s10.2148,4.5818,10.2148,10.2148C118.6728,163.2117,114.091,167.7947,108.458,167.7947z M108.458,151.312c-3.456,0-6.2679,2.8107-6.268,6.2667c0.0001,3.4559,2.8121,6.2679,6.268,6.268 c3.4559-0.0001,6.2667-2.812,6.2667-6.268C114.7246,154.1227,111.9138,151.312,108.458,151.312z M59.3367,167.7947 c-5.633,0-10.2155-4.5831-10.2154-10.2162s4.5824-10.2149,10.2155-10.2148c5.633,0,10.2155,4.5818,10.2155,10.2148 C69.5522,163.2117,64.9698,167.7946,59.3367,167.7947z M59.3367,151.312c-3.4558,0-6.2673,2.8107-6.2672,6.2667 c-0.0001,3.4559,2.8114,6.268,6.2672,6.268s6.2673-2.812,6.2673-6.2679C65.604,154.1227,62.7927,151.312,59.3367,151.312z M10.2155,167.7947C4.5825,167.7947,0,163.2117,0,157.5786c0-5.633,4.5824-10.2149,10.2154-10.2149s10.2154,4.5818,10.2154,10.2149 C20.4309,163.2117,15.8486,167.7947,10.2155,167.7947z M10.2155,151.312c-3.4558,0-6.2673,2.8107-6.2673,6.2666 c0,3.4558,2.8114,6.268,6.2673,6.2679c3.4558,0,6.2673-2.8121,6.2673-6.2679C16.4829,154.1227,13.6714,151.312,10.2155,151.312z M304.9427,118.6729c-5.633,0-10.2149-4.5824-10.2148-10.2155c0-5.6325,4.5818-10.2148,10.2148-10.2148 c5.6331,0,10.2162,4.5824,10.2161,10.2148C315.159,114.0905,310.576,118.6729,304.9427,118.6729z M304.9428,102.1907 c-3.4558,0-6.2667,2.8114-6.2667,6.2667c0.0001,3.4559,2.8107,6.2673,6.2667,6.2672c3.4558,0,6.268-2.8114,6.268-6.2672 C311.2108,105.0022,308.3987,102.1908,304.9428,102.1907z M255.8226,118.6729c-5.633,0-10.2161-4.5823-10.2161-10.2155 c0-5.6325,4.5831-10.2148,10.2161-10.2148c5.633,0,10.2149,4.5824,10.2148,10.2148 C266.0374,114.0905,261.4557,118.6729,255.8226,118.6729z M255.8226,102.1907c-3.4558,0-6.268,2.8114-6.268,6.2667 c0,3.4558,2.812,6.2673,6.2679,6.2673c3.4558,0,6.2667-2.8114,6.2666-6.2673C262.0893,105.0021,259.2786,102.1907,255.8226,102.1907 z M206.7002,118.6729c-5.633,0-10.2149-4.5824-10.2148-10.2155c0-5.6325,4.5818-10.2148,10.2148-10.2148 s10.2162,4.5824,10.2161,10.2148C216.9162,114.0905,212.3332,118.6729,206.7002,118.6729z M206.7001,102.1907 c-3.4558,0-6.2667,2.8114-6.2667,6.2667c0,3.4558,2.8107,6.2673,6.2667,6.2672c3.4558,0,6.268-2.8114,6.2679-6.2673 C212.9681,105.0021,210.1561,102.1907,206.7001,102.1907z M157.5788,118.6729c-5.633,0-10.2149-4.5824-10.2148-10.2155 c0-5.6325,4.5818-10.2148,10.2148-10.2148s10.2161,4.5825,10.2161,10.2148C167.7948,114.0905,163.2119,118.6729,157.5788,118.6729z M157.5788,102.1907c-3.4558,0-6.2667,2.8114-6.2667,6.2667c0,3.4558,2.8107,6.2673,6.2666,6.2673 c3.4558,0,6.268-2.8114,6.2679-6.2673C163.8466,105.0021,161.0347,102.1907,157.5788,102.1907z M108.458,118.6729 c-5.633,0-10.2161-4.5825-10.2161-10.2155c0-5.6325,4.5831-10.2148,10.2161-10.2148s10.2149,4.5824,10.2148,10.2148 C118.6729,114.0905,114.091,118.6729,108.458,118.6729z M108.4579,102.1907c-3.4558,0-6.268,2.8114-6.268,6.2667 c-0.0001,3.4559,2.812,6.2673,6.2679,6.2673c3.4559-0.0001,6.2667-2.8114,6.2667-6.2672 C114.7247,105.0021,111.9139,102.1907,108.4579,102.1907z M59.3367,118.6729c-5.633,0-10.2154-4.5824-10.2154-10.2154 c0-5.6325,4.5824-10.2149,10.2154-10.2149s10.2154,4.5824,10.2155,10.2149C69.5521,114.0905,64.9698,118.6728,59.3367,118.6729z M59.3368,102.1907c-3.4559,0.0001-6.2672,2.8114-6.2673,6.2666c0,3.4558,2.8114,6.2672,6.2673,6.2673 c3.4558,0,6.2672-2.8114,6.2673-6.2673C65.604,105.0021,62.7926,102.1907,59.3368,102.1907z M10.2155,118.6729 c-5.633,0-10.2154-4.5824-10.2154-10.2154c0-5.6325,4.5824-10.2149,10.2154-10.2149s10.2154,4.5824,10.2155,10.2148 C20.431,114.0905,15.8486,118.6729,10.2155,118.6729z M10.2155,102.1907c-3.4558,0-6.2672,2.8114-6.2672,6.2667 c-0.0001,3.4559,2.8113,6.2673,6.2673,6.2673c3.4558,0,6.2672-2.8114,6.2673-6.2673 C16.4829,105.0022,13.6715,102.1907,10.2155,102.1907z M304.9428,69.5522c-5.633,0-10.2149-4.5824-10.2149-10.2154 s4.5818-10.2155,10.2148-10.2155c5.633,0,10.2162,4.5824,10.2161,10.2155C315.1587,64.9699,310.5759,69.5522,304.9428,69.5522z M304.9429,53.0694c-3.4558,0-6.2667,2.8114-6.2666,6.2673c0,3.4558,2.8107,6.2673,6.2667,6.2672 c3.4559,0.0001,6.268-2.8114,6.268-6.2672C311.2109,55.8809,308.3988,53.0695,304.9429,53.0694z M255.8226,69.5523 c-5.633,0-10.2162-4.5824-10.2161-10.2155c0-5.633,4.583-10.2155,10.2162-10.2154c5.6332,0,10.2149,4.5824,10.2149,10.2154 C266.0374,64.9698,261.4557,69.5523,255.8226,69.5523z M255.8226,53.0695c-3.4558,0-6.268,2.8114-6.2679,6.2673 c0,3.4558,2.8121,6.2673,6.2679,6.2673s6.2667-2.8114,6.2666-6.2673C262.0891,55.8809,259.2784,53.0695,255.8226,53.0695z M206.7002,69.5523c-5.633,0-10.2149-4.5824-10.2149-10.2154s4.5818-10.2154,10.2149-10.2154 c5.633,0,10.2161,4.5823,10.2161,10.2155S212.3332,69.5523,206.7002,69.5523z M206.7002,53.0695 c-3.4558,0-6.2667,2.8114-6.2666,6.2673c0,3.4558,2.8107,6.2673,6.2666,6.2673c3.4558,0,6.268-2.8114,6.2679-6.2673 C212.9681,55.8808,210.156,53.0695,206.7002,53.0695z M157.5788,69.5523c-5.633,0-10.2149-4.5824-10.2148-10.2155 c0-5.633,4.5818-10.2155,10.2149-10.2154c5.633,0,10.2161,4.5823,10.2162,10.2154 C167.7952,64.9699,163.2119,69.5523,157.5788,69.5523z M157.5788,53.0695c-3.4558,0-6.2667,2.8114-6.2666,6.2673 c0,3.4558,2.8107,6.2673,6.2667,6.2672c3.4558,0,6.268-2.8114,6.2679-6.2673C163.8466,55.8808,161.0347,53.0695,157.5788,53.0695z M108.458,69.5523c-5.633,0-10.2161-4.5825-10.2161-10.2155s4.583-10.2154,10.2161-10.2155s10.2149,4.5824,10.2149,10.2154 S114.091,69.5523,108.458,69.5523z M108.458,53.0695c-3.4558,0-6.268,2.8114-6.268,6.2672s2.812,6.2673,6.268,6.2672 c3.4558,0,6.2667-2.8114,6.2667-6.2672C114.7247,55.8809,111.9139,53.0694,108.458,53.0695z M59.3368,69.5522 c-5.633,0-10.2154-4.5824-10.2154-10.2154s4.5824-10.2155,10.2154-10.2154c5.633,0,10.2154,4.5824,10.2154,10.2154 S64.9698,69.5522,59.3368,69.5522z M59.3367,53.0695c-3.4558,0-6.2672,2.8114-6.2673,6.2673s2.8113,6.2673,6.2673,6.2673 c3.4558,0,6.2672-2.8114,6.2673-6.2673C65.6041,55.8809,62.7927,53.0695,59.3367,53.0695z M10.2155,69.5523 c-5.633,0-10.2154-4.5824-10.2154-10.2155c0-5.633,4.5824-10.2155,10.2154-10.2154S20.431,53.7038,20.431,59.3368 C20.431,64.9699,15.8486,69.5523,10.2155,69.5523z M10.2155,53.0695c-3.4559,0.0001-6.2672,2.8114-6.2673,6.2673 c0,3.4558,2.8114,6.2672,6.2673,6.2673c3.4559-0.0001,6.2672-2.8114,6.2673-6.2673C16.4828,55.8809,13.6714,53.0695,10.2155,53.0695 z M304.9428,20.4303c-5.633,0-10.2149-4.5824-10.2149-10.2154c0-5.6325,4.5818-10.2148,10.2148-10.2148 c5.633,0,10.2162,4.5824,10.2161,10.2148C315.159,15.848,310.5759,20.4303,304.9428,20.4303z M304.9429,3.9483 c-3.4559-0.0001-6.2667,2.8114-6.2667,6.2667c0,3.4558,2.8108,6.2673,6.2667,6.2672c3.4559,0.0001,6.268-2.8114,6.268-6.2672 C311.2108,6.7597,308.3988,3.9482,304.9429,3.9483z M255.8226,20.4304c-5.633,0-10.2162-4.5824-10.2161-10.2155 c0-5.6325,4.5831-10.2148,10.2161-10.2148c5.633,0,10.2149,4.5824,10.2148,10.2148 C266.0374,15.8479,261.4557,20.4304,255.8226,20.4304z M255.8226,3.9483c-3.4558,0-6.268,2.8114-6.268,6.2667 c0,3.4558,2.812,6.2673,6.2679,6.2673c3.4558,0,6.2667-2.8114,6.2666-6.2673C262.0891,6.7597,259.2786,3.9483,255.8226,3.9483z M206.7002,20.4304c-5.633,0-10.2149-4.5824-10.2149-10.2154c0-5.6325,4.5818-10.2148,10.2148-10.2148 s10.2162,4.5824,10.2161,10.2148C216.9162,15.848,212.3332,20.4304,206.7002,20.4304z M206.7001,3.9483 c-3.4558,0-6.2667,2.8114-6.2667,6.2667c0,3.4558,2.8108,6.2673,6.2667,6.2672c3.4558,0,6.268-2.8114,6.2679-6.2673 C212.9681,6.7597,210.1561,3.9483,206.7001,3.9483z M157.5788,20.4304c-5.633,0-10.2149-4.5824-10.2148-10.2155 c0-5.6325,4.5818-10.2148,10.2148-10.2148s10.2161,4.5823,10.2161,10.2148C167.7948,15.848,163.2119,20.4304,157.5788,20.4304z M157.5788,3.9483c-3.4558,0-6.2667,2.8114-6.2667,6.2667c0,3.4558,2.8107,6.2673,6.2667,6.2672 c3.4558,0,6.268-2.8114,6.2679-6.2673C163.8466,6.7597,161.0347,3.9483,157.5788,3.9483z M108.458,20.4304 c-5.633,0-10.2162-4.5824-10.2161-10.2155c0-5.6325,4.5831-10.2148,10.2161-10.2148s10.2149,4.5824,10.2148,10.2148 C118.6728,15.8479,114.091,20.4304,108.458,20.4304z M108.458,3.9482c-3.4558,0-6.268,2.8114-6.268,6.2667 c0,3.4558,2.8121,6.2673,6.2679,6.2673c3.4558,0,6.2667-2.8114,6.2667-6.2672C114.7247,6.7596,111.9139,3.9483,108.458,3.9482z M59.3368,20.4303c-5.633,0-10.2154-4.5824-10.2154-10.2154C49.1213,4.5824,53.7037,0,59.3368,0s10.2154,4.5824,10.2155,10.2148 C69.5522,15.8479,64.9698,20.4303,59.3368,20.4303z M59.3368,3.9483c-3.4558,0-6.2672,2.8114-6.2672,6.2667 c-0.0001,3.4559,2.8113,6.2673,6.2673,6.2673c3.4558,0,6.2672-2.8114,6.2673-6.2673C65.6041,6.7596,62.7927,3.9482,59.3368,3.9483z M10.2155,20.4304c-5.633,0-10.2154-4.5824-10.2154-10.2154c0-5.6325,4.5824-10.2149,10.2154-10.2149S20.4309,4.5825,20.431,10.2149 C20.431,15.848,15.8486,20.4304,10.2155,20.4304z M10.2155,3.9483c-3.4558,0-6.2672,2.8114-6.2672,6.2667 c0,3.4558,2.8114,6.2672,6.2673,6.2673c3.4559-0.0001,6.2672-2.8114,6.2673-6.2673C16.4829,6.7597,13.6715,3.9483,10.2155,3.9483z" style="fill: inherit;"/></g></svg>