<svg xmlns="http://www.w3.org/2000/svg" xmlns:xlink="http://www.w3.org/1999/xlink" data-name="Layer 1" preserveAspectRatio="xMidYMid meet" version="1.0" viewBox="0.0 0.0 655.5 697.3" zoomAndPan="magnify" style="fill: rgb(255, 180, 208);" original_string_length="44020"><g id="__id208_srveoc98t"><path d="M0,54H0Z" style="fill: inherit;"/></g><g id="__id209_srveoc98t"><path d="M11.91,0V2.24C11.92,1.54,11.91.8,11.91,0Z" style="fill: inherit;"/></g><g id="__id210_srveoc98t"><path d="M0,11.91H0Z" style="fill: inherit;"/></g><g id="__id211_srveoc98t"><path d="M54.09,0V0Z" style="fill: inherit;"/></g><g id="__id212_srveoc98t"><path d="M95.92,0V0Z" style="fill: inherit;"/></g><g id="__id213_srveoc98t"><path d="M138.15,0V0Z" style="fill: inherit;"/></g><g id="__id214_srveoc98t"><path d="M180.24,0V0Z" style="fill: inherit;"/></g><g id="__id215_srveoc98t"><path d="M222.42,0V0Z" style="fill: inherit;"/></g><g id="__id216_srveoc98t"><path d="M264.25,0V0Z" style="fill: inherit;"/></g><g id="__id217_srveoc98t"><path d="M306.6,0V0Z" style="fill: inherit;"/></g><g id="__id218_srveoc98t"><path d="M348.77,0V0Z" style="fill: inherit;"/></g><g id="__id219_srveoc98t"><path d="M391,0V0Z" style="fill: inherit;"/></g><g id="__id220_srveoc98t"><path d="M432.78,0V0Z" style="fill: inherit;"/></g><g id="__id221_srveoc98t"><path d="M475,0V0Z" style="fill: inherit;"/></g><g id="__id222_srveoc98t"><path d="M655.45,54h0Z" style="fill: inherit;"/></g><g id="__id223_srveoc98t"><path d="M653.22,54c-6.84,0-8.85-.26-9.43-4.13a41.62,41.62,0,0,0,.25-5.54V21.59a41.52,41.52,0,0,0-.25-5.54c.58-3.88,2.59-4.12,9.43-4.14-9.24,0-9.67-.44-9.68-9.67,0,6.84-.26,8.84-4.14,9.43a41.24,41.24,0,0,0-5.54-.26H610.78a41.28,41.28,0,0,0-5.6.25c-3.82-.6-4.06-2.62-4.08-9.42,0,6.84-.25,8.85-4.14,9.43a42.92,42.92,0,0,0-5.53-.26H569a41.24,41.24,0,0,0-5.54.26c-3.88-.59-4.12-2.59-4.13-9.43,0,6.84-.26,8.84-4.14,9.43a41.34,41.34,0,0,0-5.54-.26H526.78a42.54,42.54,0,0,0-5.59.25c-3.83-.6-4.08-2.61-4.09-9.42,0,6.84-.26,8.84-4.14,9.43a41.24,41.24,0,0,0-5.54-.26H484.69a42.39,42.39,0,0,0-5.57.25c-3.85-.59-4.1-2.6-4.11-9.42,0,6.84-.26,8.84-4.13,9.43a41.5,41.5,0,0,0-5.55-.26H442.45a41.28,41.28,0,0,0-5.6.25c-3.81-.6-4.06-2.62-4.07-9.42,0,6.84-.26,8.85-4.15,9.43a42.92,42.92,0,0,0-5.53-.26H400.62a41.34,41.34,0,0,0-5.54.26c-3.87-.59-4.12-2.59-4.13-9.43,0,6.84-.26,8.84-4.14,9.43a41.24,41.24,0,0,0-5.54-.26H358.45a42.63,42.63,0,0,0-5.59.25c-3.83-.6-4.08-2.61-4.09-9.42,0,6.84-.26,8.84-4.13,9.43a41.41,41.41,0,0,0-5.55-.26H316.27a42.47,42.47,0,0,0-5.58.25c-3.83-.6-4.08-2.61-4.09-9.42,0,6.84-.26,8.85-4.15,9.43a42.92,42.92,0,0,0-5.53-.26h-23a41.28,41.28,0,0,0-5.6.25c-3.81-.6-4.06-2.62-4.07-9.42,0,6.84-.26,8.85-4.15,9.43a42.92,42.92,0,0,0-5.53-.26H232.09a41.34,41.34,0,0,0-5.54.26c-3.87-.59-4.12-2.59-4.13-9.43,0,6.84-.26,8.84-4.14,9.43a41.24,41.24,0,0,0-5.54-.26H189.92a42.63,42.63,0,0,0-5.59.25c-3.83-.6-4.08-2.61-4.09-9.42,0,6.84-.26,8.84-4.13,9.43a41.34,41.34,0,0,0-5.54-.26H147.83a42.39,42.39,0,0,0-5.57.25c-3.85-.59-4.1-2.6-4.11-9.42,0,6.84-.26,8.84-4.13,9.43a41.34,41.34,0,0,0-5.54-.26H105.59a41.28,41.28,0,0,0-5.6.25c-3.81-.6-4.06-2.62-4.07-9.42,0,6.84-.26,8.85-4.15,9.43a42.82,42.82,0,0,0-5.53-.26H63.77a41.5,41.5,0,0,0-5.55.26c-3.87-.59-4.12-2.59-4.13-9.43,0,6.84-.26,8.84-4.13,9.43a41.5,41.5,0,0,0-5.55-.26H21.59a42.47,42.47,0,0,0-5.58.25c-3.84-.6-4.08-2.61-4.1-9.42,0,9.23-.44,9.66-9.67,9.67,6.83,0,8.84.26,9.43,4.13-.07.47-.13,1-.17,1.55V48.36c0,.56.09,1.06.17,1.52C11.08,53.74,9.07,54,2.24,54c6.83,0,8.84.26,9.43,4.13-.07.47-.13,1-.17,1.55V90.45c0,.56.09,1.06.17,1.52-.59,3.86-2.6,4.11-9.43,4.12,6.83,0,8.84.26,9.43,4.13-.07.47-.13,1-.17,1.55v30.77c0,.56.09,1.06.17,1.52-.59,3.86-2.6,4.11-9.43,4.12,6.83,0,8.84.26,9.43,4.13-.07.47-.13,1-.17,1.54v30.78c0,.56.09,1.06.17,1.52-.59,3.86-2.6,4.11-9.43,4.12,6.83,0,8.84.26,9.43,4.13-.07.47-.13,1-.17,1.54v30.78c0,.56.09,1.06.17,1.52-.59,3.86-2.6,4.11-9.43,4.12,6.83,0,8.84.26,9.43,4.13-.07.47-.13,1-.17,1.54v30.78c0,.56.09,1.06.17,1.52-.59,3.86-2.6,4.11-9.43,4.12,6.83,0,8.84.26,9.43,4.13-.07.47-.13,1-.17,1.54V300.9c0,.56.09,1.06.17,1.52-.59,3.86-2.6,4.11-9.43,4.12,6.83,0,8.84.26,9.43,4.13-.07.47-.13,1-.17,1.54V343c0,.56.09,1.05.17,1.52-.59,3.86-2.6,4.11-9.43,4.12,6.83,0,8.84.26,9.43,4.12-.07.47-.13,1-.17,1.55v30.78c0,.56.09,1.05.17,1.52-.59,3.86-2.6,4.11-9.43,4.12,6.83,0,8.84.26,9.43,4.12-.07.47-.13,1-.17,1.55v30.77c0,.57.09,1.06.17,1.53-.59,3.86-2.6,4.1-9.43,4.12,6.83,0,8.84.25,9.43,4.12-.07.47-.13,1-.17,1.55v30.77c0,.57.09,1.06.17,1.53-.59,3.85-2.6,4.1-9.43,4.11,6.83,0,8.84.26,9.43,4.13-.07.47-.13,1-.17,1.55v30.77a15,15,0,0,0,.17,1.52c-.59,3.86-2.6,4.11-9.43,4.12,6.83,0,8.84.26,9.43,4.13-.07.47-.13,1-.17,1.55v30.77c0,.56.09,1.06.17,1.52-.59,3.86-2.6,4.11-9.43,4.12,6.83,0,8.84.26,9.43,4.13-.07.47-.13,1-.17,1.54v30.78c0,.56.09,1.06.17,1.52-.59,3.86-2.6,4.11-9.43,4.12,6.83,0,8.84.26,9.43,4.13-.07.47-.13,1-.17,1.54v30.78c0,.56.09,1.06.17,1.52-.59,3.86-2.6,4.11-9.43,4.12,6.83,0,8.84.26,9.43,4.13-.07.47-.13,1-.17,1.54V679.7c0,.56.09,1.06.17,1.52-.59,3.86-2.6,4.11-9.43,4.12,9.23,0,9.66.44,9.67,9.68,0-6.81.26-8.83,4.09-9.43a39.46,39.46,0,0,0,5.59.25H44.41a41.78,41.78,0,0,0,5.55-.25c3.87.58,4.12,2.59,4.13,9.43,0-6.84.26-8.85,4.13-9.43a41.78,41.78,0,0,0,5.55.25H86.24a39.72,39.72,0,0,0,5.54-.26c3.88.59,4.13,2.59,4.14,9.44,0-6.8.26-8.82,4.07-9.42a41.61,41.61,0,0,0,5.61.24h22.88a41.62,41.62,0,0,0,5.54-.25c3.87.58,4.12,2.59,4.13,9.43,0-6.83.26-8.84,4.11-9.43a40.79,40.79,0,0,0,5.57.25h22.74a41.62,41.62,0,0,0,5.54-.25c3.87.58,4.12,2.59,4.13,9.43,0-6.81.26-8.83,4.09-9.43a39.38,39.38,0,0,0,5.59.25h22.82a41.52,41.52,0,0,0,5.54-.25c3.88.58,4.13,2.59,4.14,9.43,0-6.84.26-8.85,4.13-9.43a41.69,41.69,0,0,0,5.55.25h22.47a39.47,39.47,0,0,0,5.53-.26c3.89.59,4.14,2.59,4.15,9.44,0-6.8.26-8.82,4.07-9.42a41.53,41.53,0,0,0,5.6.24h23a39.56,39.56,0,0,0,5.53-.26c3.89.59,4.14,2.59,4.15,9.44,0-6.81.26-8.83,4.09-9.43a39.23,39.23,0,0,0,5.58.25H339.1a41.62,41.62,0,0,0,5.54-.25c3.87.58,4.12,2.59,4.13,9.43,0-6.81.26-8.83,4.09-9.43a39.38,39.38,0,0,0,5.59.25h22.82a41.52,41.52,0,0,0,5.54-.25c3.88.58,4.13,2.59,4.14,9.43,0-6.84.26-8.85,4.13-9.43a41.62,41.62,0,0,0,5.54.25H423.1a39.47,39.47,0,0,0,5.53-.26c3.89.59,4.14,2.59,4.15,9.44,0-6.8.26-8.82,4.07-9.42a41.53,41.53,0,0,0,5.6.24h22.89a41.62,41.62,0,0,0,5.54-.25c3.87.58,4.12,2.59,4.13,9.43,0-6.83.26-8.84,4.11-9.43a40.71,40.71,0,0,0,5.57.25h22.73a41.78,41.78,0,0,0,5.55-.25c3.87.58,4.12,2.59,4.13,9.43,0-6.81.26-8.83,4.09-9.43a39.3,39.3,0,0,0,5.59.25H549.6a41.52,41.52,0,0,0,5.54-.25c3.88.58,4.12,2.59,4.14,9.43,0-6.84.25-8.85,4.13-9.43a41.62,41.62,0,0,0,5.54.25h22.48a39.56,39.56,0,0,0,5.53-.26c3.89.59,4.13,2.59,4.14,9.44,0-6.8.26-8.82,4.08-9.42a41.53,41.53,0,0,0,5.6.24h23.08a41.78,41.78,0,0,0,5.55-.25c3.87.58,4.12,2.59,4.13,9.43,0-9.24.44-9.67,9.68-9.68-6.84,0-8.85-.26-9.43-4.13a41.78,41.78,0,0,0,.25-5.55V652.93a41.52,41.52,0,0,0-.25-5.54c.58-3.88,2.59-4.13,9.43-4.14-6.84,0-8.85-.26-9.43-4.13a41.78,41.78,0,0,0,.25-5.55V610.84a41.52,41.52,0,0,0-.25-5.54c.58-3.88,2.59-4.13,9.43-4.14-6.84,0-8.85-.26-9.43-4.13a41.69,41.69,0,0,0,.25-5.55V568.75a41.52,41.52,0,0,0-.25-5.54c.58-3.88,2.59-4.13,9.43-4.14-6.84,0-8.85-.26-9.43-4.13a41.69,41.69,0,0,0,.25-5.55V526.66a41.52,41.52,0,0,0-.25-5.54c.58-3.88,2.59-4.13,9.43-4.14-6.84,0-8.85-.26-9.43-4.13a41.62,41.62,0,0,0,.25-5.54V484.57a41.52,41.52,0,0,0-.25-5.54c.58-3.88,2.59-4.12,9.43-4.14-6.84,0-8.85-.26-9.43-4.13a41.62,41.62,0,0,0,.25-5.54V442.48a41.52,41.52,0,0,0-.25-5.54c.58-3.88,2.59-4.12,9.43-4.13-6.84,0-8.85-.26-9.43-4.14a41.52,41.52,0,0,0,.25-5.54V400.39a41.62,41.62,0,0,0-.25-5.54c.58-3.87,2.59-4.12,9.43-4.13-6.84,0-8.85-.26-9.43-4.14A41.52,41.52,0,0,0,644,381V358.3a41.62,41.62,0,0,0-.25-5.54c.58-3.87,2.59-4.12,9.43-4.13-6.84,0-8.85-.26-9.43-4.14A41.52,41.52,0,0,0,644,339V316.21a41.62,41.62,0,0,0-.25-5.54c.58-3.87,2.59-4.12,9.43-4.13-6.84,0-8.85-.26-9.43-4.14a41.52,41.52,0,0,0,.25-5.54V274.12a41.71,41.71,0,0,0-.25-5.54c.58-3.87,2.59-4.12,9.43-4.13-6.84,0-8.85-.26-9.43-4.14a41.52,41.52,0,0,0,.25-5.54V232a41.78,41.78,0,0,0-.25-5.55c.58-3.87,2.59-4.12,9.43-4.13-6.84,0-8.85-.26-9.43-4.13a41.78,41.78,0,0,0,.25-5.55V190a41.52,41.52,0,0,0-.25-5.54c.58-3.88,2.59-4.13,9.43-4.14-6.84,0-8.85-.26-9.43-4.13a41.78,41.78,0,0,0,.25-5.55V147.86a41.52,41.52,0,0,0-.25-5.54c.58-3.88,2.59-4.13,9.43-4.14-6.84,0-8.85-.26-9.43-4.13a41.69,41.69,0,0,0,.25-5.55V105.77a41.52,41.52,0,0,0-.25-5.54c.58-3.88,2.59-4.13,9.43-4.14-6.84,0-8.85-.26-9.43-4.13a41.62,41.62,0,0,0,.25-5.54V63.68a41.52,41.52,0,0,0-.25-5.54C644.37,54.26,646.38,54,653.22,54Zm-20.8,630.84H610.78c-6.58,0-8.22-.3-8.83-3.11V646.86c.61-2.81,2.25-3.1,8.83-3.11h23.08c9,0,9.17.19,9.18,9.18v22.73c0,9-.19,9.17-9.18,9.18Zm-42.43,0H569c-9,0-9.16-.19-9.17-9.18V652.93c0-9,.18-9.16,9.17-9.18h22.48c9,0,9.16.19,9.17,9.18v2.24h.26v18.26h-.26v2.23c0,9-.18,9.17-9.17,9.18Zm-41.83,0H526.78c-7.67,0-8.79-.33-9.09-5.17V649c.3-4.86,1.42-5.19,9.09-5.2H549.6c9,0,9.16.19,9.18,9.18h0v22.73c0,9-.19,9.17-9.18,9.18Zm-42.18,0H484.69c-7.09,0-8.52-.33-9-3.92V647.71c.47-3.63,1.91-4,9-4h22.73c9,0,9.16.19,9.18,9.18v22.73c0,9-.19,9.17-9.18,9.18Zm-42.09,0H442.45c-6.58,0-8.21-.3-8.83-3.11V646.86c.62-2.81,2.25-3.1,8.83-3.11h22.88c9,0,9.17.19,9.18,9.18h0v22.73c0,9-.19,9.17-9.17,9.18Zm-42.23,0h-21c-9,0-9.16-.19-9.17-9.18V652.93c0-9,.18-9.16,9.17-9.18H423.1c9,0,9.16.19,9.18,9.18v2.24h.26v18.26h-.26v2.23c0,9-.19,9.17-9.18,9.18Zm-41.83,0H358.45c-7.67,0-8.79-.33-9.09-5.17V649c.3-4.86,1.42-5.19,9.09-5.2h22.82c9,0,9.16.19,9.18,9.18h0v22.73c0,9-.19,9.17-9.18,9.18Zm-42.17,0H316.27c-7.66,0-8.79-.33-9.09-5.17V648.94c.31-4.85,1.43-5.18,9.09-5.19h22.82c9,0,9.17.19,9.18,9.18v22.73c0,9-.19,9.17-9.17,9.18Zm-42.18,0H273.92c-6.58,0-8.21-.3-8.83-3.11V646.86c.62-2.81,2.25-3.1,8.83-3.11h23c9,0,9.16.19,9.18,9.17h0v2.24h.08v18.26h-.08v2.23h0c0,9-.19,9.16-9.18,9.17Zm-42.35,0h-21c-9,0-9.17-.19-9.18-9.18V652.93c0-9,.18-9.16,9.17-9.18h22.48c9,0,9.16.19,9.18,9.18v2.24H264v18.26h-.26v2.23c0,9-.19,9.17-9.18,9.18Zm-41.83,0H189.92c-7.67,0-8.79-.33-9.09-5.17V649c.3-4.86,1.42-5.19,9.09-5.2h22.82c9,0,9.16.19,9.18,9.18h0v22.73c0,9-.19,9.17-9.18,9.18Zm-42.17,0h-21.3c-7.08,0-8.51-.33-9-3.92V647.71c.47-3.63,1.91-4,9-4h22.74c9,0,9.16.19,9.17,9.18v22.73c0,9-.18,9.17-9.17,9.18Zm-42.09,0H105.6c-6.59,0-8.22-.3-8.83-3.11V646.86c.61-2.81,2.24-3.1,8.82-3.11h22.89c9,0,9.16.19,9.17,9.18h0v22.73c0,9-.18,9.17-9.17,9.18Zm-42.24,0h-21c-9,0-9.17-.19-9.18-9.18V652.93c0-9,.19-9.16,9.18-9.18H86.24c9,0,9.17.19,9.18,9.18v2.24h.26v18.26h-.26v2.23c0,9-.19,9.17-9.18,9.18Zm-41.83,0H21.59c-7.67,0-8.79-.33-9.09-5.17V649c.3-4.86,1.42-5.19,9.09-5.2H44.41c9,0,9.17.19,9.18,9.18h0v22.73c0,9-.19,9.17-9.18,9.18ZM44.41,12.41c9,0,9.17.19,9.18,9.18V44.33c0,9-.19,9.16-9.18,9.17H21.59c-7.66,0-8.79-.33-9.09-5.17V17.62c.3-4.87,1.42-5.19,9.09-5.21Zm41.83,0c9,0,9.17.19,9.18,9.18v2.24h.26V42.09h-.26v2.24c0,9-.19,9.16-9.18,9.17H63.77c-9,0-9.17-.18-9.18-9.17h0V21.59c0-9,.19-9.16,9.18-9.18Zm42.24,0c9,0,9.16.19,9.17,9.18h0V44.33c0,9-.18,9.16-9.17,9.17H105.6c-6.59,0-8.22-.3-8.83-3.11V15.52c.61-2.8,2.24-3.09,8.82-3.11Zm42.09,0c9,0,9.16.19,9.17,9.18V44.33c0,9-.18,9.16-9.17,9.17H147.83c-7.08,0-8.51-.33-9-3.92V16.37c.48-3.63,1.92-3.94,9-4Zm42.17,0c9,0,9.16.19,9.18,9.18V44.33c0,9-.19,9.16-9.18,9.17H189.92c-7.67,0-8.79-.33-9.09-5.17V17.6c.3-4.85,1.43-5.17,9.09-5.19Zm41.83,0c9,0,9.16.19,9.18,9.18v2.24H264V42.09h-.26v2.24c0,9-.19,9.16-9.18,9.17H232.1c-9,0-9.17-.18-9.18-9.17h0V21.59c0-9,.18-9.16,9.17-9.18Zm42.35,0c9,0,9.16.19,9.18,9.18h0v2.24h.08V42.09h-.08v2.24h0c0,9-.19,9.16-9.18,9.17h-23c-6.58,0-8.21-.3-8.83-3.11V15.52c.62-2.8,2.25-3.09,8.83-3.11Zm42.17,0c9,0,9.17.19,9.18,9.18V44.33c0,9-.18,9.16-9.17,9.17H316.27c-7.66,0-8.79-.33-9.09-5.17V17.6c.31-4.85,1.43-5.17,9.09-5.19Zm42.18,0c9,0,9.16.19,9.18,9.18V44.33c0,9-.19,9.16-9.18,9.17H358.45c-7.67,0-8.79-.33-9.09-5.17V17.6c.3-4.85,1.43-5.17,9.09-5.19Zm41.83,0c9,0,9.16.19,9.18,9.18v2.24h.26V42.09h-.26v2.24c0,9-.19,9.16-9.18,9.17H400.62c-9,0-9.16-.18-9.17-9.17h0V21.59c0-9,.18-9.16,9.17-9.18Zm42.23,0c9,0,9.17.19,9.18,9.18h0V44.33c0,9-.18,9.16-9.17,9.17H442.45c-6.58,0-8.21-.3-8.83-3.11V15.52c.62-2.8,2.25-3.09,8.83-3.11Zm42.09,0c9,0,9.16.19,9.18,9.18V44.33c0,9-.19,9.16-9.18,9.17H484.69c-7.09,0-8.52-.33-9-3.92V16.37c.47-3.63,1.91-3.94,9-4Zm42.18,0c9,0,9.16.19,9.18,9.18V44.33c0,9-.19,9.16-9.18,9.17H526.78c-7.67,0-8.79-.33-9.09-5.17V17.6c.3-4.85,1.43-5.17,9.09-5.19Zm41.83,0c9,0,9.16.19,9.17,9.18v2.24h.26V42.09h-.26v2.24c0,9-.18,9.16-9.17,9.17H569c-9,0-9.16-.18-9.17-9.17h0V21.59c0-9,.18-9.16,9.17-9.18Zm42.43,0c9,0,9.17.19,9.18,9.18V44.33c0,9-.19,9.16-9.18,9.17H610.78c-6.58,0-8.22-.3-8.83-3.11V15.52c.61-2.8,2.25-3.09,8.83-3.11Zm0,630.34H610.78c-6.58,0-8.22-.3-8.83-3.11V604.77c.61-2.81,2.25-3.1,8.83-3.11h23.08c9,0,9.17.19,9.18,9.18v22.73C643,642.56,642.85,642.74,633.86,642.75Zm-612.27,0c-7.66,0-8.79-.33-9.09-5.17V606.86c.3-4.86,1.42-5.19,9.09-5.2H44.41c9,0,9.17.19,9.18,9.18h0v22.73c0,9-.19,9.17-9.18,9.18H21.59Zm0-588.25H44.41c9,0,9.17.19,9.18,9.18h0V86.42c0,9-.19,9.16-9.18,9.17H21.59c-7.67,0-8.79-.33-9.09-5.17V59.71C12.8,54.84,13.92,54.52,21.59,54.5Zm42.18,462c-9,0-9.17-.18-9.18-9.17h0V484.57c0-9,.19-9.16,9.18-9.18H86.24c9,0,9.17.19,9.18,9.18v2.24h.26v18.26h-.26v2.24c0,9-.19,9.16-9.18,9.17H63.77Zm-9.18-51.26V442.48c0-9,.19-9.16,9.18-9.17H86.24c9,0,9.17.18,9.18,9.17v2.24h.26V463h-.26v2.24c0,9-.19,9.16-9.18,9.17H63.77c-9,0-9.17-.18-9.18-9.17Zm0-42.09V400.39c0-9,.19-9.16,9.18-9.17H86.24c9,0,9.17.18,9.18,9.17v2.24h.26v18.26h-.26v2.24c0,9-.19,9.16-9.18,9.18H63.77c-9,0-9.17-.19-9.18-9.18Zm0-42.09V358.31c0-9,.19-9.17,9.18-9.18H86.24c9,0,9.17.18,9.18,9.17v2.24h.26V378.8h-.26V381c0,9-.19,9.16-9.18,9.18H63.77c-9,0-9.17-.19-9.18-9.18Zm0-42.09V316.22c0-9,.19-9.17,9.18-9.18H86.24c9,0,9.17.18,9.18,9.17v2.24h.26v18.26h-.26V339c0,9-.19,9.16-9.18,9.18H63.77c-9,0-9.17-.19-9.18-9.18Zm0-42.09V274.13c0-9,.19-9.17,9.18-9.18H86.24c9,0,9.17.18,9.18,9.17v2.24h.26v18.26h-.26v2.24c0,9-.19,9.16-9.18,9.18H63.77c-9,0-9.17-.19-9.18-9.18Zm0-42.09V232c0-9,.19-9.17,9.18-9.18H86.24c9,0,9.17.19,9.18,9.18v2.23h.26v18.26h-.26v2.24c0,9-.19,9.16-9.18,9.18H63.77c-9,0-9.17-.19-9.18-9.18Zm0-42.09V190c0-9,.19-9.16,9.18-9.18H86.24c9,0,9.17.19,9.18,9.18v2.23h.26v18.27h-.26v2.23c0,9-.19,9.17-9.18,9.18H63.77c-9,0-9.17-.19-9.18-9.18Zm534.6,10.18h2.24c9,0,9.16.19,9.17,9.18v2.23h.26v18.26h-.26v2.24c0,9-.18,9.16-9.17,9.18H569c-9,0-9.16-.19-9.17-9.18h0V232c0-9,.18-9.17,9.17-9.18h20.24Zm11.67,53.5v18.26h-.26v2.24c0,9-.18,9.16-9.17,9.18H569c-9,0-9.16-.19-9.17-9.18h0V274.13c0-9,.18-9.17,9.17-9.18h22.48c9,0,9.16.18,9.17,9.17v2.24Zm0,42.09v18.26h-.26V339c0,9-.18,9.16-9.17,9.18H569c-9,0-9.16-.19-9.17-9.18h0V316.22c0-9,.18-9.17,9.17-9.18h22.48c9,0,9.16.18,9.17,9.17v2.24Zm0,42.09V378.8h-.26V381c0,9-.18,9.16-9.17,9.18H569c-9,0-9.16-.19-9.17-9.18h0V358.31c0-9,.18-9.17,9.17-9.18h22.48c9,0,9.16.18,9.17,9.17v2.24Zm0,42.09v18.26h-.26v2.24c0,9-.18,9.16-9.17,9.18H569c-9,0-9.16-.19-9.17-9.18h0V400.39c0-9,.18-9.16,9.17-9.17h22.48c9,0,9.16.18,9.17,9.17v2.24ZM549.6,307c9,0,9.16.18,9.18,9.17h0V339c0,9-.19,9.16-9.18,9.18H526.78c-7.67,0-8.79-.34-9.09-5.17V312.24c.3-4.87,1.42-5.19,9.09-5.2H549.6Zm-42.18,0c9,0,9.16.18,9.18,9.17V339c0,9-.19,9.16-9.18,9.18H484.69c-7.09,0-8.52-.33-9-3.93V311c.47-3.63,1.91-3.95,9-4h22.73Zm-42.09,0c9,0,9.17.18,9.18,9.17h0V339c0,9-.18,9.16-9.17,9.18H442.45c-6.58,0-8.21-.3-8.83-3.11V310.15c.62-2.81,2.25-3.1,8.83-3.11h22.88Zm-42.23,0c9,0,9.16.18,9.18,9.17v2.24h.26v18.26h-.26V339c0,9-.19,9.16-9.18,9.18H400.62c-9,0-9.16-.19-9.17-9.18h0V316.22c0-9,.18-9.17,9.17-9.18H423.1Zm-41.83,0c9,0,9.16.18,9.18,9.17V339c0,9-.19,9.16-9.18,9.18H358.45c-7.67,0-8.79-.34-9.09-5.17V312.23c.3-4.86,1.43-5.18,9.09-5.19h22.82Zm-42.18,0c9,0,9.17.18,9.18,9.17V339c0,9-.18,9.16-9.17,9.18H316.27c-7.66,0-8.79-.34-9.09-5.17V312.23c.31-4.86,1.43-5.18,9.09-5.19h22.82Zm-42.17,0c9,0,9.16.18,9.18,9.17h0v2.23h.08v18.26h-.08V339h0c0,9-.19,9.16-9.18,9.18h-23c-6.58,0-8.21-.3-8.83-3.11V310.15c.62-2.81,2.25-3.1,8.83-3.11h23Zm-42.35,0c9,0,9.16.18,9.18,9.17v2.24H264v18.26h-.26V339c0,9-.19,9.16-9.18,9.18H232.1c-9,0-9.17-.19-9.18-9.18h0V316.22c0-9,.18-9.17,9.17-9.18h22.48Zm-41.83,0c9,0,9.16.18,9.18,9.17V339c0,9-.19,9.16-9.18,9.18H189.92c-7.67,0-8.79-.34-9.09-5.17V312.24c.3-4.87,1.42-5.19,9.09-5.2h22.82Zm-42.17,0c9,0,9.16.18,9.17,9.17V339c0,9-.18,9.16-9.17,9.18H147.83c-7.08,0-8.51-.33-9-3.93V311c.47-3.63,1.91-3.95,9-4Zm-42.09,0c9,0,9.16.18,9.17,9.17h0V339c0,9-.18,9.16-9.17,9.18H105.6c-6.59,0-8.22-.3-8.83-3.11V310.15c.61-2.81,2.24-3.1,8.82-3.11ZM105.6,390.22c-6.59,0-8.22-.3-8.83-3.11V352.24c.61-2.81,2.24-3.1,8.82-3.11h22.89c9,0,9.16.18,9.17,9.17h0V381c0,9-.18,9.16-9.17,9.18H105.6Zm42.23,0c-7.08,0-8.51-.33-9-3.93v-33.2c.47-3.63,1.91-3.95,9-4h22.74c9,0,9.16.18,9.17,9.17V381c0,9-.18,9.16-9.17,9.18H147.83Zm42.09,0c-7.67,0-8.79-.34-9.09-5.18V354.33c.3-4.87,1.42-5.19,9.09-5.2h22.82c9,0,9.16.18,9.18,9.17h0V381c0,9-.19,9.16-9.18,9.18H189.92Zm42.18,0c-9,0-9.17-.19-9.18-9.18V358.31c0-9,.18-9.17,9.17-9.18h22.48c9,0,9.16.18,9.18,9.17v2.24H264V378.8h-.26V381c0,9-.19,9.16-9.18,9.18H232.1Zm41.82,0c-6.58,0-8.21-.3-8.83-3.11V352.24c.62-2.81,2.25-3.1,8.83-3.11h23c9,0,9.16.18,9.18,9.17h0v2.23h.08V378.8h-.08V381h0c0,9-.19,9.16-9.18,9.18h-23Zm42.35,0c-7.66,0-8.79-.34-9.09-5.18V354.32c.31-4.86,1.43-5.18,9.09-5.19h22.82c9,0,9.17.18,9.18,9.17V381c0,9-.19,9.16-9.17,9.18H316.27Zm42.18,0c-7.67,0-8.79-.34-9.09-5.18V354.33c.3-4.87,1.42-5.19,9.09-5.2h22.82c9,0,9.16.18,9.18,9.17h0V381c0,9-.19,9.16-9.18,9.18H358.45Zm42.17,0c-9,0-9.16-.19-9.17-9.18V358.31c0-9,.18-9.17,9.17-9.18H423.1c9,0,9.16.18,9.18,9.17v2.24h.26V378.8h-.26V381c0,9-.19,9.16-9.18,9.18H400.62Zm41.83,0c-6.58,0-8.21-.3-8.83-3.11V352.24c.62-2.81,2.25-3.1,8.83-3.11h22.88c9,0,9.17.18,9.18,9.17h0V381c0,9-.18,9.16-9.17,9.18H442.45Zm42.24,0c-7.09,0-8.52-.33-9-3.93v-33.2c.47-3.63,1.91-3.95,9-4h22.73c9,0,9.16.18,9.18,9.17V381c0,9-.19,9.16-9.18,9.18H484.69Zm42.09,0c-7.67,0-8.79-.34-9.09-5.18V354.33c.3-4.87,1.42-5.19,9.09-5.2H549.6c9,0,9.16.18,9.18,9.17h0V381c0,9-.19,9.16-9.18,9.18H526.78ZM549.6,265c9,0,9.16.19,9.18,9.17h0v22.73c0,9-.19,9.16-9.18,9.18H526.78c-7.67,0-8.79-.34-9.09-5.17V270.15c.3-4.87,1.42-5.19,9.09-5.2H549.6Zm-42.18,0c9,0,9.16.19,9.18,9.17v22.74c0,9-.19,9.16-9.18,9.18H484.69c-7.09,0-8.52-.33-9-3.92V268.91c.47-3.63,1.91-4,9-4h22.73Zm-42.09,0c9,0,9.17.18,9.18,9.17h0v22.73c0,9-.18,9.16-9.17,9.18H442.45c-6.58,0-8.21-.3-8.83-3.11V268.06c.62-2.81,2.25-3.1,8.83-3.11h22.88Zm-42.23,0c9,0,9.16.18,9.18,9.17v2.24h.26v18.26h-.26v2.24c0,9-.19,9.16-9.18,9.18H400.62c-9,0-9.16-.19-9.17-9.18h0V274.13c0-9,.18-9.17,9.17-9.18H423.1Zm-41.83,0c9,0,9.16.18,9.18,9.17v22.74c0,9-.19,9.16-9.18,9.18H358.45c-7.67,0-8.79-.34-9.09-5.17V270.14c.3-4.86,1.43-5.18,9.09-5.19h22.82Zm-42.18,0c9,0,9.17.18,9.18,9.17v22.74c0,9-.18,9.16-9.17,9.18H316.27c-7.66,0-8.79-.34-9.09-5.17V270.14c.31-4.86,1.43-5.18,9.09-5.19h22.82Zm-42.17,0c9,0,9.16.19,9.18,9.17h0v2.23h.08v18.26h-.08v2.24h0c0,9-.19,9.16-9.18,9.18h-23c-6.58,0-8.21-.3-8.83-3.11V268.06c.62-2.81,2.25-3.1,8.83-3.11h23Zm-42.35,0c9,0,9.16.18,9.18,9.17v2.24H264v18.26h-.26v2.24c0,9-.19,9.16-9.18,9.18H232.1c-9,0-9.17-.19-9.18-9.18h0V274.13c0-9,.18-9.17,9.17-9.18h22.48Zm-41.83,0c9,0,9.16.18,9.18,9.17v22.74c0,9-.19,9.16-9.18,9.18H189.92c-7.67,0-8.79-.34-9.09-5.17V270.14c.3-4.86,1.43-5.18,9.09-5.19h22.82Zm-42.17,0c9,0,9.16.18,9.17,9.17v22.74c0,9-.18,9.16-9.17,9.18H147.83c-7.08,0-8.51-.33-9-3.92V268.91c.47-3.63,1.91-4,9-4Zm-42.09,0c9,0,9.16.18,9.17,9.17h0v22.73c0,9-.18,9.16-9.17,9.18H105.6c-6.59,0-8.22-.3-8.83-3.11V268.06c.61-2.81,2.24-3.1,8.82-3.11ZM105.6,432.31c-6.59,0-8.22-.3-8.83-3.12V394.33c.61-2.81,2.24-3.1,8.82-3.11h22.89c9,0,9.16.18,9.17,9.17h0v22.74c0,9-.18,9.16-9.17,9.18H105.6Zm42.23,0c-7.08,0-8.51-.34-9-3.93v-33.2c.47-3.63,1.91-3.95,9-4h22.74c9,0,9.16.18,9.17,9.17v22.74c0,9-.18,9.16-9.17,9.18H147.83Zm42.09,0c-7.67,0-8.79-.34-9.09-5.18V396.42c.3-4.87,1.42-5.19,9.09-5.2h22.82c9,0,9.16.18,9.18,9.17h0v22.74c0,9-.19,9.16-9.18,9.18H189.92Zm42.18,0c-9,0-9.17-.19-9.18-9.18V400.39c0-9,.18-9.16,9.17-9.17h22.48c9,0,9.16.18,9.18,9.17v2.24H264v18.26h-.26v2.24c0,9-.19,9.16-9.18,9.18H232.1Zm41.82,0c-6.58,0-8.21-.3-8.83-3.12V394.33c.62-2.81,2.25-3.1,8.83-3.11h23c9,0,9.16.18,9.18,9.17h0v2.24h.08v18.26h-.08v2.24h0c0,9-.19,9.16-9.18,9.18h-23Zm42.35,0c-7.66,0-8.79-.34-9.09-5.18V396.41c.31-4.86,1.43-5.18,9.09-5.19h22.82c9,0,9.17.18,9.18,9.17v22.74c0,9-.19,9.16-9.17,9.18H316.27Zm42.18,0c-7.67,0-8.79-.34-9.09-5.18V396.42c.3-4.87,1.42-5.19,9.09-5.2h22.82c9,0,9.16.18,9.18,9.17h0v22.74c0,9-.19,9.16-9.18,9.18H358.45Zm42.17,0c-9,0-9.16-.19-9.17-9.18V400.39c0-9,.18-9.16,9.17-9.17H423.1c9,0,9.16.18,9.18,9.17v2.24h.26v18.26h-.26v2.24c0,9-.19,9.16-9.18,9.18H400.62Zm41.83,0c-6.58,0-8.21-.3-8.83-3.12V394.33c.62-2.81,2.25-3.1,8.83-3.11h22.88c9,0,9.17.18,9.18,9.17h0v22.74c0,9-.19,9.16-9.17,9.18H442.45Zm42.24,0c-7.09,0-8.52-.34-9-3.93v-33.2c.47-3.63,1.91-3.95,9-4h22.73c9,0,9.16.18,9.18,9.17v22.74c0,9-.19,9.16-9.18,9.18H484.69Zm42.09,0c-7.67,0-8.79-.34-9.09-5.18V396.42c.3-4.87,1.42-5.19,9.09-5.2H549.6c9,0,9.16.18,9.18,9.17h0v22.74c0,9-.19,9.16-9.18,9.18H526.78ZM549.6,222.86c9,0,9.16.19,9.18,9.18h0v22.73c0,9-.19,9.16-9.18,9.18H526.78c-7.67,0-8.79-.34-9.09-5.17V228.06c.3-4.87,1.42-5.19,9.09-5.2H549.6Zm-44.41,0h2.23c9,0,9.16.19,9.18,9.18v22.73c0,9-.19,9.16-9.18,9.18H484.69c-7.09,0-8.52-.33-9-3.92V226.82c.47-3.63,1.91-3.95,9-4h20.5Zm-42.09,0h2.23c9,0,9.17.19,9.18,9.18h0v22.73c0,9-.18,9.16-9.17,9.18H442.45c-6.58,0-8.21-.3-8.83-3.11V226c.62-2.81,2.25-3.1,8.83-3.11H463.1Zm-42.24,0h2.24c9,0,9.16.19,9.18,9.18v2.23h.26v18.26h-.26v2.24c0,9-.19,9.16-9.18,9.18H400.62c-9,0-9.16-.19-9.17-9.18h0V232c0-9,.18-9.17,9.17-9.18h20.24Zm-39.59,0c9,0,9.16.19,9.18,9.18v22.73c0,9-.19,9.16-9.18,9.18H358.45c-7.67,0-8.79-.34-9.09-5.17V228.05c.3-4.86,1.43-5.18,9.09-5.19h22.82Zm-44.41,0h2.23c9,0,9.17.19,9.18,9.18v22.73c0,9-.18,9.16-9.17,9.18H316.27c-7.66,0-8.79-.34-9.09-5.17V228.05c.31-4.86,1.43-5.18,9.09-5.19h20.59Zm-39.94,0c9,0,9.16.19,9.18,9.17h0v2.23h.08v18.26h-.08v2.24h0c0,9-.19,9.15-9.18,9.17h-23c-6.58,0-8.21-.3-8.83-3.11V226c.62-2.81,2.25-3.1,8.83-3.11h23Zm-42.35,0c9,0,9.16.19,9.18,9.18v2.23H264v18.26h-.26v2.24c0,9-.19,9.16-9.18,9.18H232.1c-9,0-9.17-.19-9.18-9.18h0V232c0-9,.18-9.17,9.17-9.18h22.48Zm-44.07,0h2.24c9,0,9.16.19,9.18,9.18v22.73c0,9-.19,9.16-9.18,9.18H189.92c-7.67,0-8.79-.34-9.09-5.17V228.05c.3-4.86,1.43-5.18,9.09-5.19H210.5Zm-39.93,0c9,0,9.16.19,9.17,9.18v22.73c0,9-.18,9.16-9.17,9.18H147.83c-7.08,0-8.51-.33-9-3.92V226.82c.47-3.63,1.91-3.95,9-4h22.74Zm-44.33,0h2.24c9,0,9.16.19,9.17,9.18h0v22.73c0,9-.18,9.16-9.17,9.18H105.6c-6.59,0-8.22-.3-8.83-3.11V226c.61-2.81,2.24-3.1,8.82-3.11ZM105.6,474.39c-6.59,0-8.22-.3-8.83-3.11V436.42c.61-2.81,2.24-3.1,8.82-3.11h22.89c9,0,9.16.18,9.17,9.17h0v22.74c0,9-.18,9.16-9.17,9.17H105.6Zm42.23,0c-7.08,0-8.51-.33-9-3.92v-33.2c.47-3.63,1.91-3.95,9-4h22.74c9,0,9.16.18,9.17,9.17v22.74c0,9-.18,9.16-9.17,9.17H147.83Zm42.09,0c-7.67,0-8.79-.33-9.09-5.17V438.51c.3-4.87,1.42-5.19,9.09-5.2h22.82c9,0,9.16.18,9.18,9.17h0v22.74c0,9-.19,9.16-9.18,9.17H189.92Zm42.18,0c-9,0-9.17-.18-9.18-9.17V442.48c0-9,.18-9.16,9.17-9.17h22.48c9,0,9.16.18,9.18,9.17v2.24H264V463h-.26v2.24c0,9-.19,9.16-9.18,9.17H232.1Zm41.82,0c-6.58,0-8.21-.29-8.83-3.11V436.42c.62-2.81,2.25-3.1,8.83-3.11h23c9,0,9.16.18,9.18,9.17h0v2.24h.08V463h-.08v2.24h0c0,9-.19,9.16-9.18,9.17h-23Zm42.35,0c-7.66,0-8.79-.33-9.09-5.17V438.5c.31-4.86,1.43-5.18,9.09-5.19h22.82c9,0,9.17.18,9.18,9.17v22.74c0,9-.19,9.16-9.17,9.17H316.27Zm42.18,0c-7.67,0-8.79-.33-9.09-5.17V438.51c.3-4.87,1.42-5.19,9.09-5.2h22.82c9,0,9.16.18,9.18,9.17h0v22.74c0,9-.19,9.16-9.18,9.17H358.45Zm42.17,0c-9,0-9.16-.18-9.17-9.17V442.48c0-9,.18-9.16,9.17-9.17H423.1c9,0,9.16.18,9.18,9.17v2.24h.26V463h-.26v2.24c0,9-.19,9.16-9.18,9.17H400.62Zm41.83,0c-6.58,0-8.21-.29-8.83-3.11V436.42c.62-2.81,2.25-3.1,8.83-3.11h22.88c9,0,9.17.18,9.18,9.17h0v22.74c0,9-.19,9.16-9.17,9.17H442.45Zm42.24,0c-7.09,0-8.52-.33-9-3.92v-33.2c.47-3.63,1.91-3.95,9-4h22.73c9,0,9.16.18,9.18,9.17v22.74c0,9-.19,9.16-9.18,9.17H484.69Zm42.09,0c-7.67,0-8.79-.33-9.09-5.17V438.51c.3-4.87,1.42-5.19,9.09-5.2H549.6c9,0,9.16.18,9.18,9.17h0v22.74c0,9-.19,9.16-9.18,9.17H526.78Zm42.17,0c-9,0-9.16-.18-9.17-9.17h0V442.48c0-9,.18-9.16,9.17-9.17h22.48c9,0,9.16.18,9.17,9.17v2.24h.26V463h-.26v2.24c0,9-.18,9.16-9.17,9.17H569Zm22.48-293.62c9,0,9.16.19,9.17,9.18v2.23h.26v18.27h-.26v2.23c0,9-.18,9.17-9.17,9.18H569c-9,0-9.16-.19-9.17-9.18h0V190c0-9,.18-9.16,9.17-9.18h22.48Zm-41.83,0c9,0,9.16.19,9.18,9.18h0v22.73c0,9-.19,9.17-9.18,9.18H526.78c-7.67,0-8.79-.33-9.09-5.17V186c.3-4.87,1.42-5.19,9.09-5.2H549.6Zm-42.18,0c9,0,9.16.19,9.18,9.18v22.73c0,9-.19,9.17-9.18,9.18H484.69c-7.09,0-8.52-.33-9-3.92V184.73c.47-3.63,1.91-3.95,9-4h22.73Zm-42.09,0c9,0,9.17.19,9.18,9.18h0v22.73c0,9-.18,9.17-9.17,9.18H442.45c-6.58,0-8.21-.3-8.83-3.11V183.88c.62-2.81,2.25-3.1,8.83-3.11h22.88Zm-42.23,0c9,0,9.16.19,9.18,9.18v2.23h.26v18.27h-.26v2.23c0,9-.19,9.17-9.18,9.18H400.62c-9,0-9.16-.19-9.17-9.18h0V190c0-9,.18-9.16,9.17-9.18H423.1Zm-41.83,0c9,0,9.16.19,9.18,9.18v22.73c0,9-.19,9.17-9.18,9.18H358.45c-7.67,0-8.79-.33-9.09-5.17V186c.3-4.86,1.43-5.18,9.09-5.19h22.82Zm-42.18,0c9,0,9.17.19,9.18,9.18v22.73c0,9-.18,9.17-9.17,9.18H316.27c-7.66,0-8.79-.33-9.09-5.17V186c.31-4.86,1.43-5.18,9.09-5.19h22.82Zm-42.17,0c9,0,9.16.19,9.18,9.17h0v2.23h.08v18.27h-.08v2.23h0c0,9-.19,9.16-9.18,9.17h-23c-6.58,0-8.21-.3-8.83-3.11V183.88c.62-2.81,2.25-3.1,8.83-3.11h23Zm-42.35,0c9,0,9.16.19,9.18,9.18v2.23H264v18.27h-.26v2.23c0,9-.19,9.17-9.18,9.18H232.1c-9,0-9.17-.19-9.18-9.18h0V190c0-9,.18-9.16,9.17-9.18h22.48Zm-41.83,0c9,0,9.16.19,9.18,9.18v22.73c0,9-.19,9.17-9.18,9.18H189.92c-7.67,0-8.79-.33-9.09-5.17V186c.3-4.86,1.43-5.18,9.09-5.19h22.82Zm-42.17,0c9,0,9.16.19,9.17,9.18v22.73c0,9-.18,9.17-9.17,9.18H147.83c-7.08,0-8.51-.33-9-3.92V184.73c.48-3.63,1.92-3.95,9-4h22.74Zm-42.09,0c9,0,9.16.19,9.17,9.18h0v22.73c0,9-.18,9.17-9.17,9.18H105.6c-6.59,0-8.22-.3-8.83-3.11V183.88c.61-2.81,2.24-3.1,8.82-3.11ZM105.6,516.48c-6.59,0-8.22-.3-8.83-3.11V478.51c.61-2.82,2.24-3.11,8.82-3.12h22.89c9,0,9.16.19,9.17,9.18h0v22.74c0,9-.18,9.16-9.17,9.17H105.6Zm42.23,0c-7.08,0-8.51-.33-9-3.92v-33.2c.47-3.63,1.91-3.95,9-4h22.74c9,0,9.16.19,9.17,9.18v22.74c0,9-.18,9.16-9.17,9.17H147.83Zm42.09,0c-7.67,0-8.79-.33-9.09-5.17V480.6c.3-4.87,1.42-5.19,9.09-5.21h22.82c9,0,9.16.19,9.18,9.18h0v22.74c0,9-.19,9.16-9.18,9.17H189.92Zm42.18,0c-9,0-9.17-.18-9.18-9.17V484.57c0-9,.18-9.16,9.17-9.18h22.48c9,0,9.16.19,9.18,9.18v2.24H264v18.26h-.26v2.24c0,9-.19,9.16-9.18,9.17H232.1Zm41.82,0c-6.58,0-8.21-.3-8.83-3.11V478.5c.62-2.81,2.25-3.1,8.83-3.11h23c9,0,9.16.19,9.18,9.18h0v2.24h.08v18.26h-.08v2.24h0c0,9-.19,9.16-9.18,9.17h-23Zm42.35,0c-7.66,0-8.79-.33-9.09-5.17V480.59c.31-4.86,1.43-5.18,9.09-5.2h22.82c9,0,9.17.19,9.18,9.18v22.74c0,9-.19,9.16-9.17,9.17H316.27Zm42.18,0c-7.67,0-8.79-.33-9.09-5.17V480.6c.3-4.87,1.42-5.19,9.09-5.21h22.82c9,0,9.16.19,9.18,9.18h0v22.74c0,9-.19,9.16-9.18,9.17H358.45Zm42.17,0c-9,0-9.16-.18-9.17-9.17V484.57c0-9,.18-9.16,9.17-9.18H423.1c9,0,9.16.19,9.18,9.18v2.24h.26v18.26h-.26v2.24c0,9-.19,9.16-9.18,9.17H400.62Zm41.83,0c-6.58,0-8.21-.3-8.83-3.11V478.51c.62-2.82,2.25-3.11,8.83-3.12h22.88c9,0,9.17.19,9.18,9.18h0v22.74c0,9-.19,9.16-9.17,9.17H442.45Zm42.24,0c-7.09,0-8.52-.33-9-3.92v-33.2c.47-3.63,1.91-3.95,9-4h22.73c9,0,9.16.19,9.18,9.18v22.74c0,9-.19,9.16-9.18,9.17H484.69Zm42.09,0c-7.67,0-8.79-.33-9.09-5.17V480.6c.3-4.87,1.42-5.19,9.09-5.21H549.6c9,0,9.16.19,9.18,9.18h0v22.74c0,9-.19,9.16-9.18,9.17H526.78Zm42.17,0c-9,0-9.16-.18-9.17-9.17h0V484.57c0-9,.18-9.16,9.17-9.18h22.48c9,0,9.16.19,9.17,9.18v2.24h.26v18.26h-.26v2.24c0,9-.18,9.16-9.17,9.17H569Zm20.24-377.8h2.24c9,0,9.16.19,9.17,9.18v2.24h.26v18.26h-.26v2.23c0,9-.18,9.17-9.17,9.18H569c-9,0-9.16-.18-9.17-9.17h0V147.86c0-9,.18-9.16,9.17-9.18h20.24Zm-39.59,0c9,0,9.16.19,9.18,9.18h0v22.73c0,9-.19,9.17-9.18,9.18H526.78c-7.67,0-8.79-.33-9.09-5.17V143.89c.3-4.87,1.42-5.2,9.09-5.21H549.6Zm-44.41,0h2.23c9,0,9.16.19,9.18,9.18v22.73c0,9-.19,9.17-9.18,9.18H484.69c-7.09,0-8.52-.33-9-3.92V142.64c.47-3.63,1.91-3.95,9-4h20.5Zm-42.09,0h2.23c9,0,9.17.19,9.18,9.18h0v22.73c0,9-.18,9.17-9.17,9.18H442.45c-6.58,0-8.21-.3-8.83-3.11V141.79c.62-2.81,2.25-3.1,8.83-3.11H463.1Zm-42.24,0h2.24c9,0,9.16.19,9.18,9.18v2.24h.26v18.26h-.26v2.23c0,9-.19,9.17-9.18,9.18H400.62c-9,0-9.16-.18-9.17-9.17h0V147.86c0-9,.18-9.16,9.17-9.18h20.24Zm-39.59,0c9,0,9.16.19,9.18,9.18v22.73c0,9-.19,9.17-9.18,9.18H358.45c-7.67,0-8.79-.33-9.09-5.17V143.87c.3-4.85,1.43-5.18,9.09-5.19h22.82Zm-44.41,0h2.23c9,0,9.17.19,9.18,9.18v22.73c0,9-.18,9.17-9.17,9.18H316.27c-7.66,0-8.79-.33-9.09-5.17V143.87c.31-4.85,1.43-5.18,9.09-5.19h20.59Zm-39.94,0c9,0,9.16.19,9.18,9.17h0v2.24h.08v18.26h-.08v2.24h0c0,9-.19,9.16-9.18,9.17h-23c-6.58,0-8.21-.3-8.83-3.11V141.79c.62-2.81,2.25-3.1,8.83-3.11h23Zm-42.35,0c9,0,9.16.19,9.18,9.18v2.24H264v18.26h-.26v2.23c0,9-.19,9.17-9.18,9.18H232.1c-9,0-9.17-.18-9.18-9.17h0V147.86c0-9,.18-9.16,9.17-9.18h22.48Zm-44.07,0h2.24c9,0,9.16.19,9.18,9.18v22.73c0,9-.19,9.17-9.18,9.18H189.92c-7.67,0-8.79-.33-9.09-5.17V143.87c.3-4.85,1.43-5.18,9.09-5.19H210.5Zm-39.93,0c9,0,9.16.19,9.17,9.18v22.73c0,9-.18,9.17-9.17,9.18H147.83c-7.08,0-8.51-.33-9-3.92V142.64c.48-3.63,1.92-3.95,9-4h22.74Zm-44.33,0h2.24c9,0,9.16.19,9.17,9.18h0v22.73c0,9-.18,9.17-9.17,9.18H105.6c-6.59,0-8.22-.3-8.83-3.11V141.79c.61-2.81,2.24-3.1,8.82-3.11h20.65Zm-40,0c9,0,9.17.19,9.18,9.18v2.24h.26v18.26h-.26v2.23c0,9-.19,9.17-9.18,9.18H63.77c-9,0-9.17-.19-9.18-9.17h0V147.86c0-9,.19-9.16,9.18-9.18H86.24ZM63.77,558.57c-9,0-9.17-.18-9.18-9.17h0V526.66c0-9,.19-9.16,9.18-9.18H86.24c9,0,9.17.19,9.18,9.18v2.24h.26v18.26h-.26v2.23c0,9-.19,9.17-9.18,9.18H63.77Zm41.83,0c-6.59,0-8.22-.3-8.83-3.11V520.59c.61-2.81,2.24-3.1,8.82-3.11h22.89c9,0,9.16.19,9.17,9.18h0v22.73c0,9-.18,9.17-9.17,9.18H105.6Zm42.23,0c-7.08,0-8.51-.33-9-3.92V521.44c.47-3.63,1.91-4,9-4h22.74c9,0,9.16.19,9.17,9.18V549.4c0,9-.18,9.16-9.17,9.17H147.83Zm42.09,0c-7.67,0-8.79-.33-9.09-5.17V522.69c.3-4.87,1.42-5.19,9.09-5.21h22.82c9,0,9.16.19,9.18,9.18h0v22.73c0,9-.19,9.17-9.18,9.18H189.92Zm42.18,0c-9,0-9.17-.18-9.18-9.17V526.66c0-9,.18-9.16,9.17-9.18h22.48c9,0,9.16.19,9.18,9.18v2.24H264v18.26h-.26v2.23c0,9-.19,9.17-9.18,9.18H232.1Zm41.82,0c-6.58,0-8.21-.3-8.83-3.11V520.59c.62-2.81,2.25-3.1,8.83-3.11h23c9,0,9.16.19,9.18,9.18h0v2.24h.08v18.26h-.08v2.24h0c0,9-.19,9.16-9.18,9.17h-23Zm42.35,0c-7.66,0-8.79-.33-9.09-5.17V522.67c.31-4.85,1.43-5.17,9.09-5.19h22.82c9,0,9.17.19,9.18,9.18v22.73c0,9-.19,9.17-9.17,9.18H316.27Zm42.18,0c-7.67,0-8.79-.33-9.09-5.17V522.69c.3-4.87,1.42-5.19,9.09-5.21h22.82c9,0,9.16.19,9.18,9.18h0v22.73c0,9-.19,9.17-9.18,9.18H358.45Zm42.17,0c-9,0-9.16-.18-9.17-9.17V526.66c0-9,.18-9.16,9.17-9.18H423.1c9,0,9.16.19,9.18,9.18v2.24h.26v18.26h-.26v2.23c0,9-.19,9.17-9.18,9.18H400.62Zm41.83,0c-6.58,0-8.21-.3-8.83-3.11V520.59c.62-2.81,2.25-3.1,8.83-3.11h22.88c9,0,9.17.19,9.18,9.18h0v22.73c0,9-.19,9.17-9.17,9.18H442.45Zm42.24,0c-7.09,0-8.52-.33-9-3.92V521.44c.47-3.63,1.91-4,9-4h22.73c9,0,9.16.19,9.18,9.18v22.73c0,9-.19,9.17-9.18,9.18H484.69Zm42.09,0c-7.67,0-8.79-.33-9.09-5.17V522.69c.3-4.87,1.42-5.19,9.09-5.21H549.6c9,0,9.16.19,9.18,9.18h0v22.73c0,9-.19,9.17-9.18,9.18H526.78Zm42.17,0c-9,0-9.16-.18-9.17-9.17h0V526.66c0-9,.18-9.16,9.17-9.18h22.48c9,0,9.16.19,9.17,9.18v2.24h.26v18.26h-.26v2.23c0,9-.18,9.17-9.17,9.18H569Zm22.48-462c9,0,9.16.19,9.17,9.18V108h.26v18.26h-.26v2.23c0,9-.18,9.17-9.17,9.18H569c-9,0-9.16-.18-9.17-9.17h0V105.77c0-9,.18-9.16,9.17-9.18h22.48Zm-41.83,0c9,0,9.16.19,9.18,9.18h0V128.5c0,9-.19,9.17-9.18,9.18H526.78c-7.67,0-8.79-.33-9.09-5.17V101.78c.3-4.85,1.43-5.18,9.09-5.19H549.6Zm-42.18,0c9,0,9.16.19,9.18,9.18V128.5c0,9-.19,9.17-9.18,9.18H484.69c-7.09,0-8.52-.33-9-3.92V100.55c.47-3.63,1.91-4,9-4h22.73Zm-42.09,0c9,0,9.17.19,9.18,9.18h0V128.5c0,9-.18,9.17-9.17,9.18H442.45c-6.58,0-8.21-.3-8.83-3.11V99.7c.62-2.81,2.25-3.1,8.83-3.11h22.88Zm-42.23,0c9,0,9.16.19,9.18,9.18V108h.26v18.26h-.26v2.23c0,9-.19,9.17-9.18,9.18H400.62c-9,0-9.16-.18-9.17-9.17h0V105.77c0-9,.18-9.16,9.17-9.18H423.1Zm-41.83,0c9,0,9.16.19,9.18,9.18V128.5c0,9-.19,9.17-9.18,9.18H358.45c-7.67,0-8.79-.33-9.09-5.17V101.78c.3-4.85,1.43-5.18,9.09-5.19h22.82Zm-42.18,0c9,0,9.17.19,9.18,9.18V128.5c0,9-.18,9.17-9.17,9.18H316.27c-7.66,0-8.79-.33-9.09-5.17V101.78c.31-4.85,1.43-5.18,9.09-5.19h22.82Zm-42.17,0c9,0,9.16.19,9.18,9.18h0V108h.08v18.26h-.08v2.24h0c0,9-.19,9.16-9.18,9.17h-23c-6.58,0-8.21-.3-8.83-3.11V99.7c.62-2.81,2.25-3.1,8.83-3.11h23Zm-42.35,0c9,0,9.16.19,9.18,9.18V108H264v18.26h-.26v2.23c0,9-.19,9.17-9.18,9.18H232.1c-9,0-9.17-.18-9.18-9.17h0V105.77c0-9,.18-9.16,9.17-9.18h22.48Zm-41.83,0c9,0,9.16.19,9.18,9.18V128.5c0,9-.19,9.17-9.18,9.18H189.92c-7.67,0-8.79-.33-9.09-5.17V101.78c.3-4.85,1.43-5.18,9.09-5.19h22.82Zm-42.17,0c9,0,9.16.19,9.17,9.18V128.5c0,9-.18,9.17-9.17,9.18H147.83c-7.08,0-8.51-.33-9-3.92V100.55c.48-3.63,1.92-4,9-4h22.74Zm-42.09,0c9,0,9.16.19,9.17,9.18h0V128.5c0,9-.18,9.17-9.17,9.18H105.6c-6.59,0-8.22-.3-8.83-3.11V99.7c.61-2.81,2.24-3.1,8.82-3.11h22.89Zm-42.24,0c9,0,9.17.19,9.18,9.18V108h.26v18.26h-.26v2.23c0,9-.19,9.17-9.18,9.18H63.77c-9,0-9.17-.18-9.18-9.17h0V105.77c0-9,.19-9.16,9.18-9.18ZM63.77,600.66c-9,0-9.17-.18-9.18-9.17h0V568.75c0-9,.19-9.16,9.18-9.18H86.24c9,0,9.17.19,9.18,9.18V571h.26v18.26h-.26v2.23c0,9-.19,9.17-9.18,9.18H63.77Zm41.83,0c-6.59,0-8.22-.3-8.83-3.11V562.68c.61-2.81,2.24-3.1,8.82-3.11h22.89c9,0,9.16.19,9.17,9.18h0v22.73c0,9-.18,9.17-9.17,9.18H105.6Zm42.23,0c-7.08,0-8.51-.33-9-3.92V563.53c.47-3.63,1.91-3.95,9-4h22.74c9,0,9.16.19,9.17,9.18v22.74c0,9-.18,9.16-9.17,9.17H147.83Zm42.09,0c-7.67,0-8.79-.33-9.09-5.17V564.78c.3-4.87,1.42-5.2,9.09-5.21h22.82c9,0,9.16.19,9.18,9.18h0v22.73c0,9-.19,9.17-9.18,9.18H189.92Zm42.18,0c-9,0-9.17-.18-9.18-9.17V568.75c0-9,.18-9.16,9.17-9.18h22.48c9,0,9.16.19,9.18,9.18V571H264v18.26h-.26v2.23c0,9-.19,9.17-9.18,9.18H232.1Zm41.82,0c-6.58,0-8.21-.3-8.83-3.11V562.68c.62-2.81,2.25-3.1,8.83-3.11h23c9,0,9.16.19,9.18,9.18h0V571h.08v18.26h-.08v2.24h0c0,9-.19,9.16-9.18,9.17h-23Zm42.35,0c-7.66,0-8.79-.33-9.09-5.17V564.76c.31-4.85,1.43-5.18,9.09-5.19h22.82c9,0,9.17.19,9.18,9.18v22.73c0,9-.19,9.17-9.17,9.18H316.27Zm42.18,0c-7.67,0-8.79-.33-9.09-5.17V564.78c.3-4.87,1.42-5.2,9.09-5.21h22.82c9,0,9.16.19,9.18,9.18h0v22.73c0,9-.19,9.17-9.18,9.18H358.45Zm42.17,0c-9,0-9.16-.18-9.17-9.17V568.75c0-9,.18-9.16,9.17-9.18H423.1c9,0,9.16.19,9.18,9.18V571h.26v18.26h-.26v2.23c0,9-.19,9.17-9.18,9.18H400.62Zm41.83,0c-6.58,0-8.21-.3-8.83-3.11V562.68c.62-2.81,2.25-3.1,8.83-3.11h22.88c9,0,9.17.19,9.18,9.18h0v22.73c0,9-.19,9.17-9.17,9.18H442.45Zm42.24,0c-7.09,0-8.52-.33-9-3.92V563.53c.47-3.63,1.91-3.95,9-4h22.73c9,0,9.16.19,9.18,9.18v22.73c0,9-.19,9.17-9.18,9.18H484.69Zm42.09,0c-7.67,0-8.79-.33-9.09-5.17V564.78c.3-4.87,1.42-5.2,9.09-5.21H549.6c9,0,9.16.19,9.18,9.18h0v22.73c0,9-.19,9.17-9.18,9.18H526.78Zm42.17,0c-9,0-9.16-.18-9.17-9.17V568.75c0-9,.18-9.16,9.17-9.18h22.48c9,0,9.16.19,9.17,9.18V571h.26v18.26h-.26v2.23c0,9-.18,9.17-9.17,9.18H569ZM591.43,54.5c9,0,9.16.19,9.17,9.18v2.24h.26V84.18h-.26v2.24c0,9-.18,9.16-9.17,9.17H569c-9,0-9.16-.18-9.17-9.17h0V63.68c0-9,.18-9.16,9.17-9.18h22.48Zm-41.83,0c9,0,9.16.19,9.18,9.18V86.42c0,9-.19,9.16-9.18,9.17H526.78c-7.67,0-8.79-.33-9.09-5.17V59.69c.3-4.85,1.43-5.17,9.09-5.19H549.6Zm-42.18,0c9,0,9.16.19,9.18,9.18V86.42c0,9-.19,9.16-9.18,9.17H484.69c-7.09,0-8.52-.33-9-3.92V58.46c.47-3.63,1.91-3.94,9-4h22.73Zm-42.09,0c9,0,9.17.19,9.18,9.18h0V86.42c0,9-.18,9.16-9.17,9.17H442.45c-6.58,0-8.21-.3-8.83-3.11V57.61c.62-2.81,2.25-3.1,8.83-3.11h22.88Zm-42.23,0c9,0,9.16.19,9.18,9.18v2.24h.26V84.18h-.26v2.24c0,9-.19,9.16-9.18,9.17H400.62c-9,0-9.16-.18-9.17-9.17h0V63.68c0-9,.18-9.16,9.17-9.18H423.1Zm-41.83,0c9,0,9.16.19,9.18,9.18V86.42c0,9-.19,9.16-9.18,9.17H358.45c-7.67,0-8.79-.33-9.09-5.17V59.69c.3-4.85,1.43-5.17,9.09-5.19h22.82Zm-42.18,0c9,0,9.17.19,9.18,9.18V86.42c0,9-.18,9.16-9.17,9.17H316.27c-7.66,0-8.79-.33-9.09-5.17V59.69c.31-4.85,1.43-5.17,9.09-5.19h22.82Zm-42.17,0c9,0,9.16.19,9.18,9.18h0v2.24h.08V84.18h-.08v2.24h0c0,9-.19,9.16-9.18,9.17h-23c-6.58,0-8.21-.3-8.83-3.11V57.61c.62-2.81,2.25-3.1,8.83-3.11h23Zm-42.35,0c9,0,9.16.19,9.18,9.18v2.24H264V84.18h-.26v2.24c0,9-.19,9.16-9.18,9.17H232.1c-9,0-9.17-.18-9.18-9.17h0V63.68c0-9,.18-9.16,9.17-9.18h22.48Zm-41.83,0c9,0,9.16.19,9.18,9.18V86.42c0,9-.19,9.16-9.18,9.17H189.92c-7.67,0-8.79-.33-9.09-5.17V59.69c.3-4.85,1.43-5.17,9.09-5.19h22.82Zm-42.17,0c9,0,9.16.19,9.17,9.18V86.42c0,9-.18,9.16-9.17,9.17H147.83c-7.08,0-8.51-.33-9-3.92V58.46c.48-3.63,1.92-3.94,9-4h22.74Zm-42.09,0c9,0,9.16.19,9.17,9.18h0V86.42c0,9-.18,9.16-9.17,9.17H105.6c-6.59,0-8.22-.3-8.83-3.11V57.61c.61-2.81,2.24-3.1,8.82-3.11h22.89Zm-42.24,0c9,0,9.17.19,9.18,9.18v2.24h.26V84.18h-.26v2.24c0,9-.19,9.16-9.18,9.17H63.77c-9,0-9.17-.18-9.18-9.17h0V63.68c0-9,.19-9.16,9.18-9.18H86.24ZM21.59,96.59H44.41c9,0,9.17.19,9.18,9.18h0V128.5c0,9-.19,9.17-9.18,9.18H21.59c-7.67,0-8.79-.33-9.09-5.17V101.8C12.8,96.93,13.92,96.6,21.59,96.59Zm0,42.09H44.41c9,0,9.17.19,9.18,9.18h0v22.73c0,9-.19,9.17-9.18,9.18H21.59c-7.66,0-8.79-.33-9.09-5.17V143.89C12.8,139,13.92,138.69,21.59,138.68Zm0,42.09H44.41c9,0,9.17.19,9.18,9.18h0v22.73c0,9-.19,9.17-9.18,9.18H21.59c-7.66,0-8.79-.33-9.09-5.17V186C12.8,181.1,13.92,180.78,21.59,180.77Zm0,42.09H44.41c9,0,9.17.19,9.18,9.18h0v22.73c0,9-.19,9.16-9.18,9.18H21.59c-7.66,0-8.79-.34-9.09-5.17V228.06C12.8,223.19,13.92,222.87,21.59,222.86Zm0,42.09H44.41c9,0,9.17.18,9.18,9.17h0v22.73c0,9-.19,9.16-9.18,9.18H21.59c-7.67,0-8.79-.34-9.09-5.17V270.15C12.8,265.28,13.92,265,21.59,265Zm0,42.09H44.41c9,0,9.17.18,9.18,9.17h0V339c0,9-.19,9.16-9.18,9.18H21.59c-7.67,0-8.79-.34-9.09-5.17V312.24C12.8,307.37,13.92,307.05,21.59,307Zm0,42.09H44.41c9,0,9.17.18,9.18,9.17h0V381c0,9-.19,9.16-9.18,9.18H21.59c-7.66,0-8.79-.34-9.09-5.18V354.33C12.8,349.46,13.92,349.14,21.59,349.13Zm0,42.09H44.41c9,0,9.17.18,9.18,9.17h0v22.74c0,9-.19,9.16-9.18,9.18H21.59c-7.66,0-8.79-.34-9.09-5.18V396.42C12.8,391.55,13.92,391.23,21.59,391.22Zm0,42.09H44.41c9,0,9.17.18,9.18,9.17h0v22.74c0,9-.19,9.16-9.18,9.17H21.59c-7.67,0-8.79-.33-9.09-5.17V438.51C12.8,433.64,13.92,433.32,21.59,433.31Zm0,42.08H44.41c9,0,9.17.19,9.18,9.18h0v22.74c0,9-.19,9.16-9.18,9.17H21.59c-7.67,0-8.79-.33-9.09-5.17V480.6C12.8,475.73,13.92,475.41,21.59,475.39Zm0,42.09H44.41c9,0,9.17.19,9.18,9.18h0v22.73c0,9-.19,9.17-9.18,9.18H21.59c-7.67,0-8.79-.33-9.09-5.17V522.69C12.8,517.82,13.92,517.5,21.59,517.48Zm0,42.09H44.41c9,0,9.17.19,9.18,9.18h0v22.73c0,9-.19,9.17-9.18,9.18H21.59c-7.66,0-8.79-.33-9.09-5.17V564.78C12.8,559.91,13.92,559.58,21.59,559.57Zm42.18,83.18c-9,0-9.17-.19-9.18-9.17h0V610.84c0-9,.19-9.16,9.18-9.18H86.24c9,0,9.17.19,9.18,9.18v2.24h.26v18.26h-.26v2.23c0,9-.19,9.17-9.18,9.18H63.77Zm41.83,0c-6.59,0-8.22-.3-8.83-3.11V604.77c.61-2.81,2.24-3.1,8.82-3.11h22.89c9,0,9.16.19,9.17,9.18h0v22.73c0,9-.18,9.17-9.17,9.18H105.6Zm42.23,0c-7.08,0-8.51-.33-9-3.92V605.62c.47-3.63,1.91-4,9-4h22.74c9,0,9.16.19,9.17,9.18v22.73c0,9-.18,9.17-9.17,9.18H147.83Zm42.09,0c-7.67,0-8.79-.33-9.09-5.17V606.86c.3-4.86,1.42-5.19,9.09-5.2h22.82c9,0,9.16.19,9.18,9.18h0v22.73c0,9-.19,9.17-9.18,9.18H189.92Zm42.18,0c-9,0-9.17-.19-9.18-9.17V610.84c0-9,.18-9.16,9.17-9.18h22.48c9,0,9.16.19,9.18,9.18v2.24H264v18.26h-.26v2.23c0,9-.19,9.17-9.18,9.18H232.1Zm41.82,0c-6.58,0-8.21-.3-8.83-3.11V604.77c.62-2.81,2.25-3.1,8.83-3.11h23c9,0,9.16.19,9.18,9.17h0v2.24h.08v18.26h-.08v2.24h0c0,9-.19,9.16-9.18,9.17h-23Zm42.35,0c-7.66,0-8.79-.33-9.09-5.17V606.85c.31-4.85,1.43-5.18,9.09-5.19h22.82c9,0,9.17.19,9.18,9.18v22.73c0,9-.19,9.17-9.17,9.18H316.27Zm42.18,0c-7.67,0-8.79-.33-9.09-5.17V606.86c.3-4.86,1.42-5.19,9.09-5.2h22.82c9,0,9.16.19,9.18,9.18h0v22.73c0,9-.19,9.17-9.18,9.18H358.45Zm42.17,0c-9,0-9.16-.19-9.17-9.17V610.84c0-9,.18-9.16,9.17-9.18H423.1c9,0,9.16.19,9.18,9.18v2.24h.26v18.26h-.26v2.23c0,9-.19,9.17-9.18,9.18H400.62Zm41.83,0c-6.58,0-8.21-.3-8.83-3.11V604.77c.62-2.81,2.25-3.1,8.83-3.11h22.88c9,0,9.17.19,9.18,9.18h0v22.73c0,9-.19,9.17-9.17,9.18H442.45Zm42.24,0c-7.09,0-8.52-.33-9-3.92V605.62c.47-3.63,1.91-4,9-4h22.73c9,0,9.16.19,9.18,9.18v22.73c0,9-.19,9.17-9.18,9.18H484.69Zm42.09,0c-7.67,0-8.79-.33-9.09-5.17V606.86c.3-4.86,1.42-5.19,9.09-5.2H549.6c9,0,9.16.19,9.18,9.18h0v22.73c0,9-.19,9.17-9.18,9.18H526.78Zm42.17,0c-9,0-9.16-.19-9.17-9.17V610.84c0-9,.18-9.16,9.17-9.18h22.48c9,0,9.16.19,9.17,9.18v2.24h.26v18.26h-.26v2.23c0,9-.18,9.17-9.17,9.18H569Zm64.91-42.09H610.78c-6.58,0-8.22-.3-8.83-3.11V562.68c.61-2.81,2.24-3.1,8.83-3.11h23.08c9,0,9.17.19,9.18,9.18v22.73C643,600.48,642.85,600.65,633.86,600.66Zm0-42.09H610.78c-6.59,0-8.22-.3-8.83-3.11V520.59c.61-2.81,2.25-3.1,8.83-3.11h23.08c9,0,9.17.19,9.18,9.18v22.73C643,558.39,642.85,558.56,633.86,558.57Zm0-42.09H610.78c-6.58,0-8.22-.3-8.83-3.11V478.5c.61-2.81,2.25-3.1,8.83-3.11h23.08c9,0,9.17.19,9.18,9.18v22.74C643,516.3,642.85,516.47,633.86,516.48Zm0-42.09H610.78c-6.58,0-8.22-.29-8.83-3.11V436.42c.61-2.81,2.25-3.1,8.83-3.11h23.08c9,0,9.17.18,9.18,9.17v22.74C643,474.21,642.85,474.38,633.86,474.39Zm0-42.08H610.78c-6.58,0-8.22-.3-8.83-3.12V394.33c.61-2.81,2.25-3.1,8.83-3.11h23.08c9,0,9.17.18,9.18,9.17v22.74C643,432.12,642.85,432.29,633.86,432.31Zm0-42.09H610.78c-6.58,0-8.22-.3-8.83-3.11V352.24c.61-2.81,2.25-3.1,8.83-3.11h23.08c9,0,9.17.18,9.18,9.17V381C643,390,642.85,390.2,633.86,390.22Zm0-42.09H610.78c-6.59,0-8.22-.3-8.83-3.11V310.15c.61-2.81,2.25-3.1,8.83-3.11h23.08c9,0,9.17.18,9.18,9.17V339C643,347.94,642.85,348.11,633.86,348.13Zm0-42.09H610.78c-6.58,0-8.22-.3-8.83-3.11V268.06c.61-2.81,2.25-3.1,8.83-3.11h23.08c9,0,9.17.19,9.18,9.17v22.74C643,305.85,642.85,306,633.86,306Zm0-42.09H610.78c-6.58,0-8.22-.3-8.83-3.11V226c.61-2.81,2.25-3.1,8.83-3.11h23.08c9,0,9.17.19,9.18,9.18v22.73C643,263.76,642.85,263.93,633.86,264Zm0-42.09H610.78c-6.58,0-8.22-.3-8.83-3.11V183.88c.61-2.81,2.25-3.1,8.83-3.11h23.08c9,0,9.17.19,9.18,9.18v22.73C643,221.67,642.85,221.85,633.86,221.86Zm0-42.09H610.78c-6.58,0-8.22-.3-8.83-3.11V141.79c.61-2.81,2.25-3.1,8.83-3.11h23.08c9,0,9.17.19,9.18,9.18v22.73C643,179.59,642.85,179.76,633.86,179.77Zm0-42.09H610.78c-6.58,0-8.22-.3-8.83-3.11V99.7c.61-2.81,2.25-3.1,8.83-3.11h23.08c9,0,9.17.19,9.18,9.18V128.5C643,137.5,642.85,137.67,633.86,137.68Zm0-42.09H610.78c-6.58,0-8.22-.3-8.83-3.11V57.61c.61-2.81,2.25-3.1,8.83-3.11h23.08c9,0,9.17.19,9.18,9.18V86.42C643,95.41,642.85,95.58,633.86,95.59Z" style="fill: inherit;"/></g><g id="__id224_srveoc98t"><path d="M0,96.09H0Z" style="fill: inherit;"/></g><g id="__id225_srveoc98t"><path d="M655.45,96.09h0Z" style="fill: inherit;"/></g><g id="__id226_srveoc98t"><path d="M0,138.18H0Z" style="fill: inherit;"/></g><g id="__id227_srveoc98t"><path d="M655.45,138.18h0Z" style="fill: inherit;"/></g><g id="__id228_srveoc98t"><path d="M0,180.27H0Z" style="fill: inherit;"/></g><g id="__id229_srveoc98t"><path d="M655.45,180.27h0Z" style="fill: inherit;"/></g><g id="__id230_srveoc98t"><path d="M0,222.36H0Z" style="fill: inherit;"/></g><g id="__id231_srveoc98t"><path d="M655.45,222.36h0Z" style="fill: inherit;"/></g><g id="__id232_srveoc98t"><path d="M0,264.45H0Z" style="fill: inherit;"/></g><g id="__id233_srveoc98t"><path d="M655.45,264.45h0Z" style="fill: inherit;"/></g><g id="__id234_srveoc98t"><path d="M0,306.54H0Z" style="fill: inherit;"/></g><g id="__id235_srveoc98t"><path d="M655.45,306.54h0Z" style="fill: inherit;"/></g><g id="__id236_srveoc98t"><path d="M0,348.63H0Z" style="fill: inherit;"/></g><g id="__id237_srveoc98t"><path d="M655.45,348.63h0Z" style="fill: inherit;"/></g><g id="__id238_srveoc98t"><path d="M0,390.72H0Z" style="fill: inherit;"/></g><g id="__id239_srveoc98t"><path d="M655.45,390.72h0Z" style="fill: inherit;"/></g><g id="__id240_srveoc98t"><path d="M0,432.81H0Z" style="fill: inherit;"/></g><g id="__id241_srveoc98t"><path d="M655.45,432.81h0Z" style="fill: inherit;"/></g><g id="__id242_srveoc98t"><path d="M0,474.89H0Z" style="fill: inherit;"/></g><g id="__id243_srveoc98t"><path d="M655.45,474.89h0Z" style="fill: inherit;"/></g><g id="__id244_srveoc98t"><path d="M0,517H0Z" style="fill: inherit;"/></g><g id="__id245_srveoc98t"><path d="M655.45,517h0Z" style="fill: inherit;"/></g><g id="__id246_srveoc98t"><path d="M0,559.07H0Z" style="fill: inherit;"/></g><g id="__id247_srveoc98t"><path d="M655.45,559.07h0Z" style="fill: inherit;"/></g><g id="__id248_srveoc98t"><path d="M0,601.16H0Z" style="fill: inherit;"/></g><g id="__id249_srveoc98t"><path d="M655.45,601.16h0Z" style="fill: inherit;"/></g><g id="__id250_srveoc98t"><path d="M0,643.25H0Z" style="fill: inherit;"/></g><g id="__id251_srveoc98t"><path d="M655.45,643.25h0Z" style="fill: inherit;"/></g><g id="__id252_srveoc98t"><path d="M0,685.34H0Z" style="fill: inherit;"/></g><g id="__id253_srveoc98t"><path d="M11.91,697.25c0-.79,0-1.54,0-2.23Z" style="fill: inherit;"/></g><g id="__id254_srveoc98t"><path d="M54.09,697.25v0Z" style="fill: inherit;"/></g><g id="__id255_srveoc98t"><path d="M95.92,697.25v0Z" style="fill: inherit;"/></g><g id="__id256_srveoc98t"><path d="M138.15,697.25v0Z" style="fill: inherit;"/></g><g id="__id257_srveoc98t"><path d="M180.24,697.25v0Z" style="fill: inherit;"/></g><g id="__id258_srveoc98t"><path d="M222.42,697.25v0Z" style="fill: inherit;"/></g><g id="__id259_srveoc98t"><path d="M264.25,697.25v0Z" style="fill: inherit;"/></g><g id="__id260_srveoc98t"><path d="M306.6,697.25v0Z" style="fill: inherit;"/></g><g id="__id261_srveoc98t"><path d="M348.77,697.25v0Z" style="fill: inherit;"/></g><g id="__id262_srveoc98t"><path d="M391,697.25v0Z" style="fill: inherit;"/></g><g id="__id263_srveoc98t"><path d="M432.78,697.25v0Z" style="fill: inherit;"/></g><g id="__id264_srveoc98t"><path d="M475,697.25v0Z" style="fill: inherit;"/></g><g id="__id265_srveoc98t"><path d="M517.1,697.25v0Z" style="fill: inherit;"/></g><g id="__id266_srveoc98t"><path d="M559.28,697.25V695C559.27,695.71,559.28,696.46,559.28,697.25Z" style="fill: inherit;"/></g><g id="__id267_srveoc98t"><path d="M601.1,697.25c0-.79,0-1.54,0-2.23Z" style="fill: inherit;"/></g><g id="__id268_srveoc98t"><path d="M643.54,697.25v0Z" style="fill: inherit;"/></g><g id="__id269_srveoc98t"><path d="M655.45,685.34h0Z" style="fill: inherit;"/></g><g id="__id270_srveoc98t"><path d="M517.1,0V0Z" style="fill: inherit;"/></g><g id="__id271_srveoc98t"><path d="M559.28,0c0,.8,0,1.54,0,2.24Z" style="fill: inherit;"/></g><g id="__id272_srveoc98t"><path d="M601.1,0V2.24C601.11,1.54,601.1.8,601.1,0Z" style="fill: inherit;"/></g><g id="__id273_srveoc98t"><path d="M655.45,11.91h0Z" style="fill: inherit;"/></g><g id="__id274_srveoc98t"><path d="M643.54,0V0Z" style="fill: inherit;"/></g></svg>