<svg xmlns="http://www.w3.org/2000/svg" viewBox="0 0 727.52 811.5"><defs><style>.cls-1{fill:#e16856;}.cls-2{fill:#f88776;}</style></defs><g id="Layer_2" data-name="Layer 2"><g id="Capa_1" data-name="Capa 1"><path class="cls-1" d="M179.46,11.5H159.37A23.86,23.86,0,0,0,152,12.8c-11.76,3.82-20.46,16.38-20.46,31.45V111.9a37.88,37.88,0,0,0,1.39,9.75c3.55,13.3,14,23,26.42,23h20.09c15.37,0,27.82-14.66,27.82-32.75V44.25C207.28,26.16,194.83,11.5,179.46,11.5Z"/><path class="cls-1" d="M574.91,11.5H554.82C539.45,11.5,527,26.16,527,44.25V111.9c0,18.09,12.45,32.75,27.82,32.75h20.09c15.36,0,27.81-14.66,27.81-32.75V44.25C602.72,26.16,590.27,11.5,574.91,11.5Z"/><path class="cls-1" d="M677.53,93.48H627.78V111.9c0,31.88-23.72,57.82-52.88,57.82H554.81c-29.16,0-52.88-25.94-52.88-57.82V93.48H232.35V111.9c0,31.88-23.73,57.82-52.89,57.82H159.37c-29.15,0-52.88-25.94-52.88-57.82V93.48H63.15c-27.61,0-50,21-50,46.88V764.63c0,25.93,22.39,46.87,50,46.87H677.52c27.63,0,50-21,50-46.87V140.36C727.52,114.48,705.16,93.48,677.53,93.48ZM662,742.69l-585.19-.22V239.18H662Z"/><path class="cls-1" d="M433,360.46H586.91c13.36,0,24.16-13.34,24.16-29.83s-10.81-29.82-24.16-29.82H433c-13.36,0-24.16,13.34-24.16,29.82S419.64,360.46,433,360.46Z"/><path class="cls-1" d="M433,468.21H586.91c13.36,0,24.16-13.34,24.16-29.83s-10.81-29.83-24.16-29.83H433c-13.36,0-24.16,13.34-24.16,29.83S419.64,468.21,433,468.21Z"/><path class="cls-1" d="M433,576H586.91c13.36,0,24.16-13.34,24.16-29.83s-10.81-29.82-24.16-29.82H433c-13.36,0-24.16,13.34-24.16,29.82S419.64,576,433,576Z"/><path class="cls-1" d="M433,683.7H586.91c13.36,0,24.16-13.34,24.16-29.82s-10.81-29.83-24.16-29.83H433c-13.36,0-24.16,13.34-24.16,29.83S419.64,683.7,433,683.7Z"/><path class="cls-1" d="M160.41,360.46H314.32c13.36,0,24.16-13.34,24.16-29.83s-10.81-29.82-24.16-29.82H160.41c-13.36,0-24.16,13.34-24.16,29.82S147.05,360.46,160.41,360.46Z"/><path class="cls-1" d="M160.41,468.21H314.32c13.36,0,24.16-13.34,24.16-29.83s-10.81-29.83-24.16-29.83H160.41c-13.36,0-24.16,13.34-24.16,29.83S147.05,468.21,160.41,468.21Z"/><path class="cls-1" d="M160.41,576H314.32c13.36,0,24.16-13.34,24.16-29.83s-10.81-29.82-24.16-29.82H160.41c-13.36,0-24.16,13.34-24.16,29.82S147.05,576,160.41,576Z"/><path class="cls-1" d="M160.41,683.7H314.32c13.36,0,24.16-13.34,24.16-29.82s-10.81-29.83-24.16-29.83H160.41c-13.36,0-24.16,13.34-24.16,29.83S147.05,683.7,160.41,683.7Z"/><path class="cls-2" d="M166.32,0H146.23a23.75,23.75,0,0,0-7.35,1.3c-11.77,3.82-20.47,16.38-20.47,31.46V100.4a37.39,37.39,0,0,0,1.4,9.75c3.54,13.3,14,23,26.42,23h20.09c15.36,0,27.81-14.67,27.81-32.76V32.76C194.13,14.66,181.68,0,166.32,0Z"/><path class="cls-2" d="M561.76,0H541.67c-15.37,0-27.82,14.66-27.82,32.76V100.4c0,18.09,12.45,32.76,27.82,32.76h20.09c15.36,0,27.81-14.67,27.81-32.76V32.76C589.57,14.66,577.12,0,561.76,0Z"/><path class="cls-2" d="M664.38,82H614.63V100.4c0,31.88-23.72,57.82-52.88,57.82H541.66c-29.16,0-52.88-25.94-52.88-57.82V82H219.2V100.4c0,31.88-23.73,57.82-52.88,57.82H146.23c-29.16,0-52.89-25.94-52.89-57.82V82H50C22.39,82,0,103,0,128.86V753.13C0,779.06,22.39,800,50,800H664.37c27.63,0,50-21,50-46.87V128.86C714.38,103,692,82,664.38,82ZM648.87,731.2,63.68,731V227.68H648.87Z"/><path class="cls-2" d="M419.86,349h153.9c13.36,0,24.16-13.34,24.16-29.83s-10.81-29.82-24.16-29.82H419.86c-13.36,0-24.17,13.34-24.17,29.82S406.5,349,419.86,349Z"/><path class="cls-2" d="M419.86,456.71h153.9c13.36,0,24.16-13.34,24.16-29.83s-10.81-29.83-24.16-29.83H419.86c-13.36,0-24.17,13.34-24.17,29.83S406.5,456.71,419.86,456.71Z"/><path class="cls-2" d="M419.86,564.45h153.9c13.36,0,24.16-13.34,24.16-29.83s-10.81-29.82-24.16-29.82H419.86c-13.36,0-24.17,13.34-24.17,29.82S406.5,564.45,419.86,564.45Z"/><path class="cls-2" d="M419.86,672.2h153.9c13.36,0,24.16-13.34,24.16-29.82s-10.81-29.83-24.16-29.83H419.86c-13.36,0-24.17,13.34-24.17,29.83S406.5,672.2,419.86,672.2Z"/><path class="cls-2" d="M147.27,349h153.9c13.36,0,24.16-13.34,24.16-29.83s-10.81-29.82-24.16-29.82H147.27c-13.36,0-24.17,13.34-24.17,29.82S133.91,349,147.27,349Z"/><path class="cls-2" d="M147.27,456.71h153.9c13.36,0,24.16-13.34,24.16-29.83s-10.81-29.83-24.16-29.83H147.27c-13.36,0-24.17,13.34-24.17,29.83S133.91,456.71,147.27,456.71Z"/><path class="cls-2" d="M147.27,564.45h153.9c13.36,0,24.16-13.34,24.16-29.83s-10.81-29.82-24.16-29.82H147.27c-13.36,0-24.17,13.34-24.17,29.82S133.91,564.45,147.27,564.45Z"/><path class="cls-2" d="M147.27,672.2h153.9c13.36,0,24.16-13.34,24.16-29.82s-10.81-29.83-24.16-29.83H147.27c-13.36,0-24.17,13.34-24.17,29.83S133.91,672.2,147.27,672.2Z"/></g></g></svg>