<svg xmlns="http://www.w3.org/2000/svg" viewBox="0 0 196.33 104.33"><defs><style>.cls-1{fill:#e16856;}.cls-2{fill:#f9fcfa;}.cls-3{fill:#f4faf9;}.cls-4{fill:#f8fcf9;}.cls-5{fill:#f6faf7;}.cls-6{fill:#f8fbf9;}.cls-7{fill:#f8fbf6;}.cls-8{fill:#f2faf9;}.cls-9{fill:#f2f9f8;}.cls-10{fill:#f1fbf9;}.cls-11{fill:#f7faf9;}.cls-12{fill:#f9fdf8;}.cls-13{fill:#f7fcf8;}.cls-14{fill:#f88776;}</style></defs><g id="Layer_2" data-name="Layer 2"><g id="Layer_1-2" data-name="Layer 1"><path class="cls-1" d="M40.54,18.53c2.68-8.82,11.35-14,20.1-15.06,7-.42,14.56.67,20.08,5.31,3.79,2.91,5.24,7.67,6.55,12.06,2.14,0,4.29.05,6.44.2.36-5.65,5.2-9.92,10.22-11.76,3.11-1.27,6.07.5,8.79,1.83,2.31-1.12,4.36-3.25,7.15-2.86,2.39-.27,4.79,2,7.06.68,3.37-1.87,7.73-2.45,11.1-.26,3.53,1.65,4.73,5.66,5.65,9.13,7.08-2.47,15.57-3,21.82,1.85,1.83-.81,3.64-1.67,5.45-2.54a11.58,11.58,0,0,1,13.9-8.46c6.56,1.41,10.81,9.7,6.55,15.45a16.64,16.64,0,0,1,0,10.71c2.64,2.62,5.51,5.79,4.89,9.83.49,5.47-3.56,9.82-7.74,12.7,2.68,4.08,1,9,2.58,13.34,1,4.2.23,9-3.15,12-4.64,5-12,4.22-18.13,5.35-1.12-.72-2.24-1.44-3.36-2.13-6.24,2.93-13.95,3.48-19.69-.9a19.51,19.51,0,0,1-8,4.57c-3.05,4.19-7.07,8.38-12.39,9.31-5.14.18-8.72-4.45-9.64-9.11-5.16,1.62-10.48.89-15.5-.84-4.39,3.52-10.49,3.94-15.7,2.19-2.23,4.35-5.37,8.34-9.85,10.53-9.56,4.78-22.7,3.18-29.56-5.49a18.07,18.07,0,0,1,2-24.22,28.49,28.49,0,0,1-2.19-6.83l-4-1.2c-1.28.67-2.56,1.34-3.83,2-6.77,0-13.62-.67-20.25,1.09-1.87-1.34-4.1-2.36-5.33-4.38s-.92-4.5-1-6.77C2.86,53.36.05,41.26,6.06,34.84c3.72-4,9.49-4.67,14.66-4.43,3.27-1.59,7.14-3.72,10.64-1.29,4.39,1.92,3.77,7.37,6,10.85,3.34,2.23,7.08-.91,10.68-.92C40.81,35.25,38.79,26,40.54,18.53Z"/><path class="cls-2" d="M58,10.43C63.83,8.69,70.57,8.82,75.91,12c5.65,3.14,7.48,11.47,3.61,16.67-1.61,2.14-4.29,3-6.64,4,2.87,7.57,7.3,16.15,15.64,18.6,4.82,1.31,8.6-3.45,13.28-3,2.61.06,2.41,3.32,2.63,5.18-4.33,6.66-13.73,7.82-20.49,4.49S72.79,47.64,70.05,40.75c-1.09-2.75-2-5.56-2.9-8.36-.43.07-1.31.17-1.74.23.1,1.66.21,3.33.33,5l3.19,1.45c-.27,1.23-.56,2.47-.87,3.7a21.16,21.16,0,0,1-8.3,8c-1-.93-2.21-1.64-2.85-2.85.81-2.28,2.61-4.2,2.69-6.72.14-4.34-.47-8.67-.39-13,.11-2.58-1.73-4.58-3.09-6.55,2.12-2.86,5.73-2.36,8.86-2.29.31.54.63,1.08,1,1.63a46.11,46.11,0,0,0-.7,6.94c2.85,0,6.33.36,8.19-2.33,2.92-3.26.21-8.32-3.56-9.45-5.81-2-14.18-.53-16.49,5.89,1,3.63,4.55,6.24,4.31,10.19-1.54.58-3.17,1.93-4.86,1-4.73-2.44-6.34-8.6-4.81-13.43C49.22,15.07,53.47,11.73,58,10.43Z"/><path class="cls-3" d="M131.65,13.62c1.54-.56,3.2-.19,4.8-.15,1.36,2.42,2.24,6.13-.29,8.09-2,.78-4.94.65-5.85-1.64C128.85,17.84,130.16,15.26,131.65,13.62Z"/><path class="cls-4" d="M101.36,19.81c1.29-2.75,4.17-4.21,6.82-5.38,3.6,8.21,1.53,17.5,3.16,26.11.89,1.05,1.92,2,2.91,3,0,.54.08,1.63.11,2.17-3.49,1.65-7.44,1.22-11.17,1,0-.6-.08-1.84-.11-2.45a28.32,28.32,0,0,0,2-3.35c-.14-5.92-1-11.82-.84-17.74C103.26,22,100.77,21.73,101.36,19.81Z"/><path class="cls-4" d="M115.1,18.05c2.06-1.78,4.18-3.68,6.93-4.25,2.15,4.77,1.75,10.13,2.27,15.23.38,4.5-.94,9.87,2.71,13.35h3.64l1.9-2.25c0-3,0-6-.11-9.06l-3.56-.86c.84-3.61,4.06-5.73,7.26-7.06,2.18,5.08,1.14,10.75,2.2,16.07q1.59,1.66,3.23,3.33c0,.49-.1,1.45-.14,1.93a56.43,56.43,0,0,1-9.79.91c-1-.77-2-1.51-3-2.27-2.45,4.52-8.41,3.14-12.5,2.25.87-2.41,2.88-4.54,2.55-7.26-.2-4.33-.5-8.66-.71-13-.15-1-.28-2.07-.39-3.1C115.43,21.65,115.16,19.83,115.1,18.05Z"/><path class="cls-5" d="M179.18,16.46c2.06-3.92,9.45-2.08,8.37,2.67-1.36,2.34-4.12,1.2-6.28,1.33,2.32,3.14,6.78,6,5.28,10.53-1.79,4.2-7,4.54-10.86,5.8l-.8,1.73c4.13,2.12,8.7-1.2,12.85.82,2,.7,2.78,2.87,3.61,4.64-1.42,6.92-9.19,9.61-15.47,9.13-2.67-.47-6.2-.85-7.59-3.5a3.49,3.49,0,0,1,3.63-4.92c2.26,1.58,4.21,3.61,6.71,4.84,2.29-.86,6.43-1.25,5.68-4.67-1.24-1.72-3.55-1.5-5.39-1.35a82.65,82.65,0,0,1-8.33.16l-2.14-2.15c0-.92,0-1.83,0-2.73,1.1-1,2.21-2,3.34-3-1.27-1.45-3.21-2.57-3.55-4.6-.73-2.26.56-4.36,1.41-6.35a28.47,28.47,0,0,1,9.82-3.06C179,20.07,177.56,18,179.18,16.46Z"/><path class="cls-6" d="M152.44,24.73c2.42-1.52,5.62-3.56,8.41-1.68,3,2.05,2.6,6,2.9,9.21-.13,2.7,2.78,4,3,6.64-2.51,2.67-5,7.19-9.37,5.57.79-5.24,2.21-10.95-.27-15.95l-4.55,1.19c-.4,2.11-1.15,4.22-.85,6.4.26,2.91,3,4.57,4.3,7-3.48,1.7-7.36,1.71-11.13,1.5l-1.57-1.93c1-1,1.93-2,2.95-2.92.27-.82.56-1.62.84-2.43a45,45,0,0,1-.76-6.54l-3-.56a12.38,12.38,0,0,1,1-4.42c1.71-1.15,3.41-2.32,5.16-3.43A17.92,17.92,0,0,1,152,26.48C152.1,26,152.34,25.17,152.44,24.73Z"/><path class="cls-1" d="M173.65,28.85c.76-2.84,4.07-2.64,6.36-2.28a16,16,0,0,1,1.78,3.64,36.68,36.68,0,0,1-5.06,2.42C175.52,31.63,172.68,31,173.65,28.85Z"/><path class="cls-7" d="M86.28,27.57c4.4-2.15,10.4-.68,12.69,3.79,2.07,4.52,2.18,10.53-1.57,14.2-2.75,3-7.45,2.7-11.06,1.82C78.72,44,78.61,30.93,86.28,27.57Z"/><path class="cls-1" d="M87.51,32.77c2.15-2.39,6.61-.85,7,2.29.32,2.59.82,6.16-2,7.62-2,.28-4.62.51-5.54-1.72C85.74,38.49,85.51,34.86,87.51,32.77Z"/><path class="cls-8" d="M24.86,36.52c1.44-1.6,3.23-2.64,5.44-2.2,0,1.82.27,4-1.5,5.12A33.5,33.5,0,0,1,24,40c.23,3.81.18,7.64.51,11.46L26.6,54c-1.9,2.57-3.83,5.94-7.54,5.65.66-4.07,2.89-8.63.14-12.4-1.62,2.53-5.88,2.16-7.48-.19a6.37,6.37,0,0,1,1.13-9.16C16.32,35.4,20.89,37,24.86,36.52Z"/><path class="cls-1" d="M14,44.4c.43-1.61.15-3.79,2.07-4.48a19.13,19.13,0,0,1,3.93-.4q.14,2.92.4,5.88C18.34,44.42,16.1,44.55,14,44.4Z"/><path class="cls-9" d="M28.8,39.44c.72.27,2.18.81,2.93,1.07a63.32,63.32,0,0,1,.55,6.33c2.25-1.15,4.56-1.56,6.78-.09.22,1.93.43,3.85.58,5.8.6.85,1.22,1.73,1.85,2.6C40.37,56.47,39.22,57.75,38,59l-2.87-.56c1-2.91,1.86-6.3-.09-9.05a24.09,24.09,0,0,0-2.69,1.22c0,1.39.08,2.8.18,4.2C33.25,56,34,57.1,34.77,58.23a61.69,61.69,0,0,1-7.18.59l-.2-1.54c.62-1,1.24-1.88,1.83-2.83a40.86,40.86,0,0,1-.69-9.37C25,44.25,28.13,41.37,28.8,39.44Z"/><path class="cls-10" d="M45.41,45.52c3.07-.6,7.27-.34,8,3.45,1.2,4.32-4.56,3.78-7.26,3.9.14.44.43,1.32.58,1.76,2.31-.05,4.44-1.07,6.72-1.33.77,5.46-8.7,6.29-10.18,1.44C41.44,51.48,42.89,47.87,45.41,45.52Z"/><path class="cls-4" d="M66,54.74c2.09.31,4-2.37,6-.85a11.93,11.93,0,0,1,4.18,9.35A18.27,18.27,0,0,1,73.23,65c-2.52-2.1-5-4.3-8.18-5.38-1.23.44-2.45.88-3.66,1.33-.16,1.5-1.83,3.51.2,4.41,5.19,3,11.55,3.68,16.31,7.59A18.67,18.67,0,0,1,81.25,86.1c-3,11.53-19.15,14.66-27.47,7-5.2-4.29-5.25-14.16,1-17.51,3.28-2,8.07-2,10.56,1.25-.46,1.09-.91,2.19-1.36,3.29-2.23.76-5,.88-6.5,2.88-.77,2.82.37,6.18,3.21,7.34,3.76,1.66,8.86,1.28,11.83-1.75,3.36-3.83,2.35-10.54-2.2-13s-9.68-3.19-13.9-6.07a7.4,7.4,0,0,1-1.49-10.35C57.26,55.52,61.85,54.18,66,54.74Z"/><path class="cls-11" d="M170.57,59.76c2.73-2.43,6.83,0,9.62-2.32h2.05a34.45,34.45,0,0,1,3.27,6.88c-2.9,2.61-5.86-.06-8.41-1.67-.46.07-1.4.16-1.86.22,0,.78,0,1.57,0,2.37,3.29,1.5,7.31,1.88,9.92,4.61,2,2.12.57,5,0,7.42a11,11,0,0,1-9.36,2.28c-1.21.59-2.49,1.75-3.92,1.14A10.29,10.29,0,0,1,168,72.59c3.63-1.91,6.43,1.63,9.66,2.73,2.38,1,1.85-2,2.13-3.28a66.8,66.8,0,0,1-10-3.72L168.38,66C168.34,63.73,168.78,61.31,170.57,59.76Z"/><path class="cls-4" d="M130.94,63.13c2.77-1.64,6.19-3.42,9.36-1.64,6.1,3.44,6.85,12.71,2.9,18.07a6.77,6.77,0,0,1-9.47,1.77,3,3,0,0,1-.32-4.79,27.61,27.61,0,0,1,4.36-.28A6.71,6.71,0,0,0,139.18,68l-2.24-1.56c-2.14,0-4.85.55-5.35,3a67.83,67.83,0,0,0,0,10.08c0,1.93,1.92,2.88,2.81,4.39.47,1.57-1,2.64-1.84,3.77-1.93,1.86-4,4.57-7,3.77-1.22-2.75.5-5.61.42-8.42-.18-4.52-.77-9-.65-13.5-1-.48-1.93-.94-2.89-1.4-.09-.56-.27-1.68-.35-2.24,2-2.11,4.1-4.5,7.18-4.73C129.68,61.68,130.52,62.65,130.94,63.13Z"/><path class="cls-6" d="M150.89,62c4.1-4.14,12.25-3.35,14.81,2.14,1,2.13,1.65,5.82-1,6.95-3.31,1.73-7.1,1.22-10.68,1.25.09.51.29,1.55.39,2.06,3.95,2.92,7.64-1.22,11.77-1.08a20,20,0,0,1,.18,3.79c-1.48,2.65-4.7,3.28-7.32,4.21-5,.07-10-3.11-10.76-8.25A11.5,11.5,0,0,1,150.89,62Z"/><path class="cls-12" d="M103.65,65.77c2.52-3.83,7.76-4.06,11.75-2.89,5,1.83,5.93,7.76,5.77,12.39-.87,2.71-2,5.78-4.75,7.11-2.67,1.56-5.83,1-8.76,1.06A12,12,0,0,1,103.65,65.77Z"/><path class="cls-13" d="M86.26,65.36c1.86-1.64,4.36-2,6.65-2.69,2.11.73,4.53,1.16,6.15,2.83a3.48,3.48,0,0,1-1,5.14c-2.73-1.1-5.43-2.56-8.47-2.1-1.71,3-2.47,7.54.71,9.9,3.4,1.67,6.6-1.76,10.11-1.22.07,1.78.91,4.21-1.05,5.32-2.66,2.54-6.63,2.69-10,2C81.8,81.8,80.22,70.34,86.26,65.36Z"/><path class="cls-1" d="M154.72,64.77c2.55-.58,6.29-1.19,6.47,2.48a36.55,36.55,0,0,1-8.26,1.29C153.51,67.27,154.1,66,154.72,64.77Z"/><path class="cls-1" d="M108.7,67.63c1.7-.78,3.58-.22,5.36,0,1.31,2.53,2.35,5.44,1.2,8.25-1,3.47-6.73,3.55-7.9.09C106.94,73.2,106.35,69.73,108.7,67.63Z"/><path class="cls-14" d="M37.68,15.14C40.36,6.32,49,1.16,57.78.08c7-.42,14.56.67,20.08,5.31,3.79,2.91,5.24,7.67,6.55,12.06,2.14,0,4.29.05,6.44.2.36-5.65,5.2-9.92,10.22-11.76,3.11-1.27,6.07.5,8.79,1.83,2.31-1.12,4.36-3.25,7.15-2.86,2.39-.27,4.79,2,7.06.68,3.37-1.87,7.73-2.45,11.1-.26,3.53,1.65,4.73,5.66,5.65,9.13,7.08-2.47,15.57-3,21.82,1.85,1.83-.81,3.64-1.67,5.45-2.54A11.58,11.58,0,0,1,182,5.26c6.57,1.41,10.82,9.7,6.55,15.45a16.64,16.64,0,0,1,0,10.71c2.64,2.62,5.51,5.79,4.89,9.83.49,5.47-3.56,9.82-7.74,12.7,2.68,4.08,1,9,2.58,13.34,1,4.2.23,9-3.15,12-4.64,5-12,4.22-18.13,5.35-1.12-.72-2.24-1.44-3.36-2.13-6.24,2.93-14,3.48-19.69-.9a19.51,19.51,0,0,1-8,4.57c-3.05,4.19-7.06,8.38-12.39,9.31-5.14.18-8.72-4.45-9.64-9.11-5.16,1.62-10.48.89-15.5-.84-4.39,3.52-10.49,3.94-15.7,2.19-2.23,4.35-5.37,8.34-9.85,10.53-9.56,4.78-22.7,3.18-29.56-5.49a18.07,18.07,0,0,1,2-24.22,28.49,28.49,0,0,1-2.19-6.83l-4-1.2c-1.28.67-2.56,1.34-3.83,2-6.77,0-13.62-.67-20.25,1.09-1.87-1.34-4.1-2.36-5.33-4.38s-.92-4.5-1-6.77C0,50-2.81,37.87,3.2,31.45c3.72-4,9.49-4.67,14.66-4.43C21.13,25.43,25,23.3,28.5,25.73c4.39,1.92,3.77,7.37,6,10.85,3.34,2.23,7.08-.91,10.68-.92C38,31.86,35.93,22.59,37.68,15.14Z"/><path class="cls-2" d="M55.12,7C61,5.3,67.71,5.43,73.06,8.61c5.64,3.14,7.47,11.47,3.6,16.67-1.6,2.14-4.28,3-6.64,4,2.87,7.57,7.3,16.15,15.64,18.6,4.82,1.31,8.61-3.45,13.28-3,2.61.06,2.41,3.32,2.63,5.18-4.33,6.66-13.73,7.82-20.49,4.49S69.94,44.25,67.19,37.36c-1.09-2.75-2-5.56-2.89-8.36-.44.07-1.32.17-1.74.23.1,1.66.21,3.33.33,5l3.18,1.45c-.27,1.23-.56,2.47-.87,3.7a21.09,21.09,0,0,1-8.3,8c-1-.93-2.21-1.64-2.85-2.85.81-2.28,2.61-4.2,2.69-6.72.14-4.34-.47-8.67-.39-13,.11-2.58-1.73-4.58-3.09-6.55,2.12-2.86,5.73-2.36,8.86-2.29.31.54.63,1.08,1,1.63a46.11,46.11,0,0,0-.7,6.94c2.85,0,6.33.36,8.19-2.33,2.92-3.26.21-8.32-3.56-9.45-5.8-2-14.17-.53-16.49,5.89,1,3.63,4.55,6.24,4.31,10.19-1.54.58-3.17,1.93-4.86,1-4.73-2.44-6.34-8.6-4.81-13.43C46.36,11.68,50.61,8.34,55.12,7Z"/><path class="cls-3" d="M128.8,10.23c1.54-.56,3.2-.19,4.8-.15,1.35,2.42,2.24,6.13-.29,8.09-2,.78-4.95.65-5.86-1.64C126,14.45,127.31,11.87,128.8,10.23Z"/><path class="cls-4" d="M98.51,16.42c1.29-2.75,4.17-4.21,6.81-5.38,3.61,8.21,1.53,17.5,3.16,26.11.9,1.05,1.92,2,2.91,3,0,.54.08,1.63.11,2.17-3.49,1.65-7.44,1.22-11.17,1,0-.6-.08-1.84-.11-2.45a28.32,28.32,0,0,0,2-3.35c-.14-5.92-1-11.82-.84-17.74C100.41,18.63,97.92,18.34,98.51,16.42Z"/><path class="cls-4" d="M112.24,14.66c2.07-1.78,4.18-3.68,6.94-4.25,2.14,4.77,1.75,10.13,2.26,15.23.38,4.5-.94,9.87,2.71,13.35h3.64l1.9-2.25c0-3,0-6-.11-9.06L126,26.82c.84-3.61,4.06-5.73,7.26-7.06,2.18,5.08,1.15,10.75,2.2,16.07q1.61,1.66,3.24,3.33c0,.49-.11,1.45-.14,1.93a56.52,56.52,0,0,1-9.79.91l-3.06-2.27c-2.44,4.52-8.4,3.14-12.5,2.25.87-2.41,2.88-4.54,2.56-7.26-.2-4.33-.5-8.66-.71-13-.15-1-.28-2.07-.4-3.1C112.57,18.26,112.31,16.44,112.24,14.66Z"/><path class="cls-5" d="M176.32,13.07c2.06-3.92,9.45-2.08,8.37,2.67-1.36,2.34-4.12,1.2-6.27,1.33,2.32,3.14,6.78,6,5.27,10.53-1.79,4.2-7,4.54-10.85,5.8-.2.43-.61,1.29-.81,1.73,4.14,2.12,8.7-1.2,12.86.82,2,.7,2.77,2.87,3.6,4.64-1.42,6.92-9.18,9.61-15.47,9.13-2.67-.47-6.2-.85-7.59-3.5a3.49,3.49,0,0,1,3.63-4.92c2.26,1.58,4.21,3.61,6.71,4.84,2.29-.86,6.43-1.25,5.68-4.67-1.23-1.72-3.55-1.5-5.39-1.35a82.65,82.65,0,0,1-8.33.16l-2.14-2.15c0-.92,0-1.83,0-2.73,1.1-1,2.21-2,3.34-3-1.27-1.45-3.21-2.57-3.55-4.6-.73-2.26.56-4.36,1.41-6.35a28.47,28.47,0,0,1,9.82-3.06C176.12,16.68,174.71,14.59,176.32,13.07Z"/><path class="cls-6" d="M149.59,21.34c2.42-1.52,5.61-3.56,8.4-1.68,3,2.05,2.61,6,2.9,9.21-.13,2.7,2.78,4,3,6.64-2.51,2.67-5,7.19-9.37,5.57.79-5.24,2.21-10.95-.27-15.95l-4.55,1.19c-.4,2.11-1.15,4.22-.85,6.4.26,2.91,3,4.57,4.3,7-3.48,1.7-7.36,1.71-11.13,1.5l-1.57-1.93c1-1,1.93-2,3-2.92.27-.82.56-1.62.84-2.43a45,45,0,0,1-.76-6.54l-3-.56a12.38,12.38,0,0,1,1-4.42c1.71-1.15,3.41-2.32,5.16-3.43a17.92,17.92,0,0,1,2.54,4.12C149.25,22.65,149.48,21.78,149.59,21.34Z"/><path class="cls-14" d="M170.8,25.46c.76-2.84,4.06-2.64,6.35-2.28a15.56,15.56,0,0,1,1.78,3.64,36.68,36.68,0,0,1-5.06,2.42C172.67,28.24,169.83,27.64,170.8,25.46Z"/><path class="cls-7" d="M83.43,24.18C87.82,22,93.82,23.5,96.11,28c2.07,4.52,2.19,10.53-1.56,14.2-2.75,3-7.45,2.7-11.07,1.82C75.86,40.65,75.76,27.54,83.43,24.18Z"/><path class="cls-14" d="M84.66,29.38c2.14-2.39,6.6-.85,7,2.29.31,2.59.81,6.16-2,7.62-2,.28-4.62.51-5.55-1.72C82.89,35.1,82.65,31.47,84.66,29.38Z"/><path class="cls-8" d="M22,33.13c1.44-1.6,3.22-2.64,5.43-2.2,0,1.82.27,4-1.5,5.12a33.36,33.36,0,0,1-4.77.56c.23,3.81.18,7.64.51,11.46l2.06,2.57c-1.89,2.57-3.83,5.94-7.54,5.65.66-4.07,2.89-8.63.14-12.4-1.62,2.53-5.88,2.16-7.48-.19A6.37,6.37,0,0,1,10,34.54C13.47,32,18,33.56,22,33.13Z"/><path class="cls-14" d="M11.1,41c.42-1.61.15-3.79,2.06-4.48a19.13,19.13,0,0,1,3.93-.4q.14,2.92.4,5.88C15.48,41,13.25,41.16,11.1,41Z"/><path class="cls-9" d="M25.94,36.05c.73.27,2.19.81,2.93,1.07a63.32,63.32,0,0,1,.55,6.33c2.25-1.15,4.56-1.56,6.78-.09.23,1.93.43,3.85.58,5.8l1.85,2.6c-1.12,1.32-2.27,2.6-3.48,3.83L32.28,55c1-2.91,1.86-6.3-.09-9.05A24.09,24.09,0,0,0,29.5,47.2c0,1.39.08,2.8.18,4.2.71,1.16,1.45,2.31,2.23,3.44a61.69,61.69,0,0,1-7.18.59l-.2-1.54c.62-1,1.24-1.88,1.83-2.83a40.86,40.86,0,0,1-.69-9.37C22.11,40.86,25.27,38,25.94,36.05Z"/><path class="cls-10" d="M42.56,42.13c3.06-.6,7.26-.34,8,3.45,1.2,4.32-4.56,3.78-7.26,3.9.15.44.44,1.32.58,1.76,2.32-.05,4.44-1.07,6.72-1.33.78,5.46-8.69,6.29-10.18,1.44C38.59,48.09,40,44.48,42.56,42.13Z"/><path class="cls-4" d="M63.13,51.35c2.09.31,4-2.37,5.94-.85a11.91,11.91,0,0,1,4.19,9.35,18.74,18.74,0,0,1-2.88,1.8c-2.53-2.1-5.06-4.3-8.19-5.38-1.22.44-2.45.88-3.66,1.33-.16,1.5-1.83,3.51.2,4.41,5.2,3,11.55,3.68,16.31,7.59a18.67,18.67,0,0,1,3.35,13.11c-3,11.53-19.15,14.66-27.47,7-5.2-4.29-5.25-14.16,1-17.51,3.28-2,8.07-2,10.56,1.25-.46,1.09-.91,2.19-1.36,3.29-2.23.76-5,.88-6.5,2.88-.77,2.82.37,6.18,3.21,7.34,3.76,1.66,8.86,1.28,11.83-1.75,3.36-3.83,2.35-10.54-2.2-13s-9.68-3.19-13.9-6.07a7.39,7.39,0,0,1-1.48-10.35C54.4,52.13,59,50.79,63.13,51.35Z"/><path class="cls-11" d="M167.72,56.37c2.73-2.43,6.83,0,9.62-2.32h2a34.41,34.41,0,0,1,3.26,6.88c-2.9,2.61-5.85-.06-8.41-1.67-.46.07-1.4.16-1.86.22,0,.78,0,1.57,0,2.37,3.29,1.5,7.31,1.88,9.92,4.61,2,2.12.57,5,0,7.42a11,11,0,0,1-9.36,2.28c-1.21.59-2.49,1.75-3.92,1.14a10.29,10.29,0,0,1-3.82-8.09c3.63-1.91,6.43,1.63,9.66,2.73,2.38,1,1.85-2,2.13-3.28a66.8,66.8,0,0,1-10-3.72l-1.44-2.32C165.48,60.34,165.93,57.92,167.72,56.37Z"/><path class="cls-4" d="M128.09,59.74c2.77-1.64,6.18-3.42,9.35-1.64,6.11,3.44,6.85,12.71,2.91,18.07a6.77,6.77,0,0,1-9.47,1.77,3,3,0,0,1-.32-4.79,27.46,27.46,0,0,1,4.36-.28,6.7,6.7,0,0,0,1.4-8.25l-2.23-1.56c-2.15,0-4.86.55-5.36,3a66.51,66.51,0,0,0,0,10.08c-.06,1.93,1.92,2.88,2.81,4.39.46,1.57-1.05,2.64-1.84,3.77-1.94,1.86-4,4.57-7,3.77-1.22-2.75.5-5.61.42-8.42-.18-4.52-.77-9-.64-13.5l-2.9-1.4c-.09-.56-.27-1.68-.35-2.24,2-2.11,4.1-4.5,7.18-4.73C126.83,58.29,127.67,59.26,128.09,59.74Z"/><path class="cls-6" d="M148,58.65c4.1-4.14,12.25-3.35,14.82,2.14,1,2.13,1.64,5.82-1,6.95C158.49,69.47,154.7,69,151.12,69c.09.51.29,1.55.39,2.06,4,2.92,7.64-1.22,11.77-1.08a20,20,0,0,1,.18,3.79C162,76.41,158.76,77,156.14,78c-5,.07-10-3.11-10.76-8.25A11.5,11.5,0,0,1,148,58.65Z"/><path class="cls-12" d="M100.79,62.38c2.52-3.83,7.76-4.06,11.75-2.89,5,1.83,5.93,7.76,5.78,12.39-.87,2.71-2,5.78-4.75,7.11-2.67,1.56-5.83,1-8.76,1.06A12,12,0,0,1,100.79,62.38Z"/><path class="cls-13" d="M83.41,62c1.85-1.64,4.36-2,6.65-2.69,2.1.73,4.52,1.16,6.14,2.83a3.48,3.48,0,0,1-1,5.14c-2.73-1.1-5.43-2.56-8.47-2.1-1.71,3-2.47,7.54.71,9.9,3.4,1.67,6.6-1.76,10.11-1.22.07,1.78.91,4.21-1.05,5.32-2.66,2.54-6.63,2.69-10,2C78.94,78.41,77.37,67,83.41,62Z"/><path class="cls-14" d="M151.86,61.38c2.55-.58,6.29-1.19,6.48,2.48a36.64,36.64,0,0,1-8.26,1.29C150.65,63.88,151.25,62.63,151.86,61.38Z"/><path class="cls-14" d="M105.85,64.24c1.7-.78,3.58-.22,5.35,0,1.31,2.53,2.35,5.44,1.2,8.25-1,3.47-6.72,3.55-7.9.09C104.09,69.81,103.49,66.34,105.85,64.24Z"/></g></g></svg>