<svg xmlns="http://www.w3.org/2000/svg" xmlns:xlink="http://www.w3.org/1999/xlink" preserveAspectRatio="xMidYMid meet" version="1.0" viewBox="0.0 0.0 53.8 51.9" zoomAndPan="magnify" style="fill: rgb(0, 0, 0);" original_string_length="747"><g id="__id277_srveoc98t"><path clip-rule="evenodd" d="M47.2,51.9C47.2,25.8,26.1,4.7,0,4.7v18.9 c15.6,0,28.3,12.7,28.3,28.3H47.2" fill-rule="evenodd" style="fill: rgb(51, 114, 207);"/></g><g id="__id278_srveoc98t" style="fill: rgb(44, 95, 171);"><path d="M6.6,0v5.1c0.7,0.1,1.3,0.2,2,0.3V2c23.4,1,42.2,19.8,43.2,43.2h-5c0.1,0.7,0.2,1.3,0.2,2h6.8 C53.8,21.1,32.6,0,6.6,0" style="fill: inherit;"/><path d="M6.6,5.1v13.8c15.6,0,28.3,12.7,28.3,28.3H47c-0.1-0.7-0.1-1.3-0.2-2h-9.9 C35.8,30.1,23.7,17.9,8.6,17V5.4C7.9,5.3,7.2,5.2,6.6,5.1" style="fill: inherit;"/></g></svg>