<svg xmlns="http://www.w3.org/2000/svg" xmlns:xlink="http://www.w3.org/1999/xlink" preserveAspectRatio="xMidYMid meet" version="1.0" viewBox="-76.3 -20.8 505.7 96.9" zoomAndPan="magnify" style="fill: rgb(0, 0, 0);" original_string_length="3628"><g id="__id295_srveoc98t"><path d="M-64.776,32.097c0.105,0.083,0.215,0.137,0.321,0.206c0.133,0.125,0.262,0.252,0.421,0.365 c9.179,6.486,18.356,12.971,27.534,19.457c8.704,6.151,17.067,13.22,27.183,16.879C10.25,76.083,26.232,64.23,41.212,53.24 c6.433-4.72,17.165-16.881,25.059-10.498c8.145,6.585,17.112,12.351,25.624,18.466c15.293,10.988,31.376,12.698,48.005,3.612 c9.174-5.013,17.536-11.914,26.06-17.937c5.209-3.68,9.356-8.27,15.688-4.306c4.011,2.51,7.761,5.563,11.542,8.403 c13.173,9.892,27.666,20.829,44.949,20.446c8.582-0.191,15.531-4.67,22.289-9.446c7.798-5.511,15.747-10.831,23.184-16.828 c3.333-2.688,7.581-6.367,11.966-4.141c3.923,1.992,7.528,4.69,10.988,7.379c6.793,5.279,13.174,11.012,20.457,15.632 c14.671,9.307,31.229,8.422,45.964-0.041c8.378-4.812,16.087-11.057,23.965-16.626c8.462-5.979,19.494-11.513,25.987-19.707 c6.516-8.222,4.198-17.753-2.196-23.639c2.808-4.399,3.379-9.863,0.394-14.958c-3.766-6.427-13.478-9.849-19.998-5.244 c-14.533,10.268-29.065,20.538-43.596,30.807c-5.58,3.943-9.177,3.326-14.598-0.503c-8.76-6.19-17.519-12.38-26.279-18.57 c-11.934-8.434-26.161-11.77-39.999-5.109c-7.89,3.798-14.98,10.067-22.096,15.097c-5.626,3.975-13.499,12.235-20.8,12.235 c-2.36,0-4.805-2.342-6.658-3.651c-4.443-3.141-8.888-6.28-13.331-9.42c-7.657-5.41-15.477-12.49-24.402-15.732 c-13.646-4.957-26.218-0.688-37.384,7.202c-8.696,6.144-17.391,12.289-26.087,18.433c-6.068,4.288-9.686,3.009-15.382-1.015 C101.745,7.375,92.965,1.17,84.183-5.033c-12.542-8.863-26.821-10.481-40.891-3.708C35.654-5.066,28.619,1.495,21.73,6.363 C17.297,9.497,8.217,18.835,2.056,17.794c-3.147-0.532-6.067-3.296-8.603-5.089c-5.175-3.658-10.349-7.314-15.526-10.971 c-8.454-5.977-16.91-11.953-25.364-17.927c-6.518-4.605-16.232-1.184-19.998,5.244c-2.931,5.002-2.436,10.361,0.24,14.72 c-1.255,1.145-2.401,2.45-3.397,3.899C-76.268,15.926-71.794,26.529-64.776,32.097z M-64.281,11.359 c0.475-0.965,1.107-1.794,1.843-2.499c0.084,0.061,0.162,0.128,0.247,0.189c14.533,10.268,29.065,20.538,43.596,30.807 c12.071,8.53,28.263,9.63,41.011,1.684c7.283-4.54,14.134-9.988,21.142-14.94c5.541-3.916,13.078-12.025,20.403-10.115 c2.046,0.534,4.634,3.129,6.285,4.295c4.71,3.328,9.422,6.658,14.132,9.986c8.087,5.715,15.972,12.661,25.739,15.21 c13.718,3.58,24.911-2.162,35.586-9.704c8.439-5.964,16.877-11.926,25.316-17.889c6.369-4.501,10.513-0.814,15.936,3.017 c18.594,13.139,43.222,37.029,67.18,20.099c7.412-5.237,14.821-10.473,22.233-15.71c4.325-3.056,13.24-12.206,19.29-9.295 c16.587,7.984,29.241,26.631,48.073,29.812c17.592,2.972,28.937-6.714,42.14-16.043c10.008-7.072,20.015-14.144,30.023-21.214 c0.032-0.022,0.061-0.049,0.093-0.071c0.684,0.666,1.352,1.443,1.997,2.38c8.148,11.85-15.102,22.89-22.409,28.053 c-16.117,11.388-33.449,28.513-54.815,22.926c-16.783-4.389-28.072-20.824-43.256-28.535c-5.339-2.71-11.061,0.405-15.475,3.436 c-7.824,5.376-15.299,11.367-23.066,16.855c-8.799,6.217-16.541,11.421-27.788,9.577c-9.43-1.546-17.947-7.276-25.627-12.632 c-6.847-4.774-13.362-10.005-20.212-14.777c-7.771-5.415-13.777-2.257-20.763,2.679c-16.98,11.998-36.759,31.81-59.096,21.944 c-7.02-3.102-13.068-8.371-19.253-12.811c-6.471-4.646-13.176-10.993-20.419-14.281c-4.859-2.205-10.404,0.35-14.56,2.872 C44.974,40.471,39.251,45.653,33.341,50c-7.036,5.173-13.983,10.603-22.539,12.904C2.078,65.25-7.209,62.858-14.811,58.45 c-15.713-9.109-30.295-21.282-45.128-31.797C-64.788,22.67-67.329,17.551-64.281,11.359z" style="fill: rgb(241, 109, 89);"/></g></svg>